<mxfile host="app.diagrams.net" agent="Mozilla/5.0 (Windows NT 10.0; Win64; x64) AppleWebKit/537.36 (KHTML, like Gecko) Chrome/127.0.0.0 Safari/537.36" version="24.7.7" pages="6">
  <diagram name="Ventas - Actual" id="HQO-HxVfIT80cwZHHfyy">
    <mxGraphModel dx="880" dy="434" grid="1" gridSize="10" guides="1" tooltips="1" connect="1" arrows="1" fold="1" page="1" pageScale="1" pageWidth="827" pageHeight="1169" math="0" shadow="0">
      <root>
        <mxCell id="0" />
        <mxCell id="1" parent="0" />
        <mxCell id="ohGJP7qHhYxOtyRBbzHj-1" value="Flujo de ventas de propiedades - Actual" style="shape=table;childLayout=tableLayout;startSize=40;collapsible=0;recursiveResize=0;expand=0;fontSize=16;fontStyle=1" vertex="1" parent="1">
          <mxGeometry x="34" y="40" width="760" height="430" as="geometry" />
        </mxCell>
        <mxCell id="ohGJP7qHhYxOtyRBbzHj-2" value="Cliente" style="shape=tableRow;horizontal=0;swimlaneHead=0;swimlaneBody=0;top=0;left=0;strokeColor=inherit;bottom=0;right=0;dropTarget=0;fontStyle=1;fillColor=none;points=[[0,0.5],[1,0.5]];portConstraint=eastwest;startSize=40;collapsible=0;recursiveResize=0;expand=0;fontSize=16;" vertex="1" parent="ohGJP7qHhYxOtyRBbzHj-1">
          <mxGeometry y="40" width="760" height="191" as="geometry" />
        </mxCell>
        <mxCell id="ohGJP7qHhYxOtyRBbzHj-3" value="Estado inicial" style="swimlane;swimlaneHead=0;swimlaneBody=0;fontStyle=1;strokeColor=inherit;connectable=0;fillColor=none;startSize=40;collapsible=0;recursiveResize=0;expand=0;fontSize=16;" vertex="1" parent="ohGJP7qHhYxOtyRBbzHj-2">
          <mxGeometry x="40" width="206" height="191" as="geometry">
            <mxRectangle width="206" height="191" as="alternateBounds" />
          </mxGeometry>
        </mxCell>
        <mxCell id="ohGJP7qHhYxOtyRBbzHj-4" value="" style="points=[[0.145,0.145,0],[0.5,0,0],[0.855,0.145,0],[1,0.5,0],[0.855,0.855,0],[0.5,1,0],[0.145,0.855,0],[0,0.5,0]];shape=mxgraph.bpmn.event;html=1;verticalLabelPosition=bottom;labelBackgroundColor=#ffffff;verticalAlign=top;align=center;perimeter=ellipsePerimeter;outlineConnect=0;aspect=fixed;outline=standard;symbol=general;" vertex="1" parent="ohGJP7qHhYxOtyRBbzHj-3">
          <mxGeometry x="10" y="50" width="30" height="30" as="geometry" />
        </mxCell>
        <mxCell id="ohGJP7qHhYxOtyRBbzHj-5" value="Solicita informacion&amp;nbsp;" style="points=[[0.25,0,0],[0.5,0,0],[0.75,0,0],[1,0.25,0],[1,0.5,0],[1,0.75,0],[0.75,1,0],[0.5,1,0],[0.25,1,0],[0,0.75,0],[0,0.5,0],[0,0.25,0]];shape=mxgraph.bpmn.task;whiteSpace=wrap;rectStyle=rounded;size=10;html=1;container=1;expand=0;collapsible=0;taskMarker=abstract;" vertex="1" parent="ohGJP7qHhYxOtyRBbzHj-3">
          <mxGeometry x="10" y="110" width="72" height="30" as="geometry" />
        </mxCell>
        <mxCell id="ohGJP7qHhYxOtyRBbzHj-6" style="edgeStyle=orthogonalEdgeStyle;rounded=0;orthogonalLoop=1;jettySize=auto;html=1;entryX=0.5;entryY=0;entryDx=0;entryDy=0;entryPerimeter=0;" edge="1" parent="ohGJP7qHhYxOtyRBbzHj-3" source="ohGJP7qHhYxOtyRBbzHj-4" target="ohGJP7qHhYxOtyRBbzHj-5">
          <mxGeometry relative="1" as="geometry">
            <Array as="points">
              <mxPoint x="46" y="65" />
            </Array>
          </mxGeometry>
        </mxCell>
        <mxCell id="ohGJP7qHhYxOtyRBbzHj-7" value="Estado Intermedio" style="swimlane;swimlaneHead=0;swimlaneBody=0;fontStyle=1;strokeColor=inherit;connectable=0;fillColor=none;startSize=40;collapsible=0;recursiveResize=0;expand=0;fontSize=16;" vertex="1" parent="ohGJP7qHhYxOtyRBbzHj-2">
          <mxGeometry x="246" width="414" height="191" as="geometry">
            <mxRectangle width="414" height="191" as="alternateBounds" />
          </mxGeometry>
        </mxCell>
        <mxCell id="ohGJP7qHhYxOtyRBbzHj-8" value="" style="points=[[0.25,0.25,0],[0.5,0,0],[0.75,0.25,0],[1,0.5,0],[0.75,0.75,0],[0.5,1,0],[0.25,0.75,0],[0,0.5,0]];shape=mxgraph.bpmn.gateway2;html=1;verticalLabelPosition=bottom;labelBackgroundColor=#ffffff;verticalAlign=top;align=center;perimeter=rhombusPerimeter;outlineConnect=0;outline=none;symbol=none;" vertex="1" parent="ohGJP7qHhYxOtyRBbzHj-7">
          <mxGeometry x="22" y="90" width="50" height="50" as="geometry" />
        </mxCell>
        <mxCell id="ohGJP7qHhYxOtyRBbzHj-9" value="Interesado?" style="text;html=1;align=center;verticalAlign=middle;whiteSpace=wrap;rounded=0;" vertex="1" parent="ohGJP7qHhYxOtyRBbzHj-7">
          <mxGeometry x="17" y="66.75" width="60" height="30" as="geometry" />
        </mxCell>
        <mxCell id="ohGJP7qHhYxOtyRBbzHj-10" value="Si" style="text;html=1;align=center;verticalAlign=middle;whiteSpace=wrap;rounded=0;" vertex="1" parent="ohGJP7qHhYxOtyRBbzHj-7">
          <mxGeometry x="44" y="90" width="60" height="30" as="geometry" />
        </mxCell>
        <mxCell id="ohGJP7qHhYxOtyRBbzHj-11" value="No" style="text;html=1;align=center;verticalAlign=middle;whiteSpace=wrap;rounded=0;" vertex="1" parent="ohGJP7qHhYxOtyRBbzHj-7">
          <mxGeometry x="-16" y="90" width="60" height="30" as="geometry" />
        </mxCell>
        <mxCell id="ohGJP7qHhYxOtyRBbzHj-12" value="&lt;font face=&quot;Arial, sans-serif&quot; color=&quot;#444444&quot;&gt;Firma contraro&lt;/font&gt;" style="points=[[0.25,0,0],[0.5,0,0],[0.75,0,0],[1,0.25,0],[1,0.5,0],[1,0.75,0],[0.75,1,0],[0.5,1,0],[0.25,1,0],[0,0.75,0],[0,0.5,0],[0,0.25,0]];shape=mxgraph.bpmn.task;whiteSpace=wrap;rectStyle=rounded;size=10;html=1;container=1;expand=0;collapsible=0;taskMarker=abstract;" vertex="1" parent="ohGJP7qHhYxOtyRBbzHj-7">
          <mxGeometry x="328" y="53.5" width="86" height="36.5" as="geometry" />
        </mxCell>
        <mxCell id="ohGJP7qHhYxOtyRBbzHj-13" value="&lt;font face=&quot;Arial, sans-serif&quot; color=&quot;#444444&quot;&gt;Realiza oferta&lt;/font&gt;" style="points=[[0.25,0,0],[0.5,0,0],[0.75,0,0],[1,0.25,0],[1,0.5,0],[1,0.75,0],[0.75,1,0],[0.5,1,0],[0.25,1,0],[0,0.75,0],[0,0.5,0],[0,0.25,0]];shape=mxgraph.bpmn.task;whiteSpace=wrap;rectStyle=rounded;size=10;html=1;container=1;expand=0;collapsible=0;taskMarker=abstract;" vertex="1" parent="ohGJP7qHhYxOtyRBbzHj-7">
          <mxGeometry x="124" y="110.25" width="86" height="36.5" as="geometry" />
        </mxCell>
        <mxCell id="ohGJP7qHhYxOtyRBbzHj-14" style="edgeStyle=orthogonalEdgeStyle;rounded=0;orthogonalLoop=1;jettySize=auto;html=1;entryX=0.25;entryY=0;entryDx=0;entryDy=0;entryPerimeter=0;" edge="1" parent="ohGJP7qHhYxOtyRBbzHj-7" source="ohGJP7qHhYxOtyRBbzHj-8" target="ohGJP7qHhYxOtyRBbzHj-13">
          <mxGeometry relative="1" as="geometry" />
        </mxCell>
        <mxCell id="ohGJP7qHhYxOtyRBbzHj-15" value="" style="points=[[0.25,0.25,0],[0.5,0,0],[0.75,0.25,0],[1,0.5,0],[0.75,0.75,0],[0.5,1,0],[0.25,0.75,0],[0,0.5,0]];shape=mxgraph.bpmn.gateway2;html=1;verticalLabelPosition=bottom;labelBackgroundColor=#ffffff;verticalAlign=top;align=center;perimeter=rhombusPerimeter;outlineConnect=0;outline=none;symbol=none;" vertex="1" parent="ohGJP7qHhYxOtyRBbzHj-7">
          <mxGeometry x="280" y="140" width="40" height="40" as="geometry" />
        </mxCell>
        <mxCell id="ohGJP7qHhYxOtyRBbzHj-16" value="Llega a un acuerdo?" style="text;html=1;align=center;verticalAlign=middle;whiteSpace=wrap;rounded=0;" vertex="1" parent="ohGJP7qHhYxOtyRBbzHj-7">
          <mxGeometry x="270" y="110" width="60" height="30" as="geometry" />
        </mxCell>
        <mxCell id="ohGJP7qHhYxOtyRBbzHj-17" style="edgeStyle=orthogonalEdgeStyle;rounded=0;orthogonalLoop=1;jettySize=auto;html=1;entryX=0.25;entryY=1;entryDx=0;entryDy=0;entryPerimeter=0;" edge="1" parent="ohGJP7qHhYxOtyRBbzHj-7" source="ohGJP7qHhYxOtyRBbzHj-15" target="ohGJP7qHhYxOtyRBbzHj-12">
          <mxGeometry relative="1" as="geometry" />
        </mxCell>
        <mxCell id="ohGJP7qHhYxOtyRBbzHj-18" value="Si" style="text;html=1;align=center;verticalAlign=middle;whiteSpace=wrap;rounded=0;" vertex="1" parent="ohGJP7qHhYxOtyRBbzHj-7">
          <mxGeometry x="300" y="140" width="60" height="30" as="geometry" />
        </mxCell>
        <mxCell id="ohGJP7qHhYxOtyRBbzHj-19" value="No" style="text;html=1;align=center;verticalAlign=middle;whiteSpace=wrap;rounded=0;" vertex="1" parent="ohGJP7qHhYxOtyRBbzHj-7">
          <mxGeometry x="290" y="161" width="60" height="30" as="geometry" />
        </mxCell>
        <mxCell id="ohGJP7qHhYxOtyRBbzHj-20" value="Estado Final" style="swimlane;swimlaneHead=0;swimlaneBody=0;fontStyle=1;strokeColor=inherit;connectable=0;fillColor=none;startSize=40;collapsible=0;recursiveResize=0;expand=0;fontSize=16;" vertex="1" parent="ohGJP7qHhYxOtyRBbzHj-2">
          <mxGeometry x="660" width="100" height="191" as="geometry">
            <mxRectangle width="100" height="191" as="alternateBounds" />
          </mxGeometry>
        </mxCell>
        <mxCell id="ohGJP7qHhYxOtyRBbzHj-21" value="Agente" style="shape=tableRow;horizontal=0;swimlaneHead=0;swimlaneBody=0;top=0;left=0;strokeColor=inherit;bottom=0;right=0;dropTarget=0;fontStyle=1;fillColor=none;points=[[0,0.5],[1,0.5]];portConstraint=eastwest;startSize=40;collapsible=0;recursiveResize=0;expand=0;fontSize=16;" vertex="1" parent="ohGJP7qHhYxOtyRBbzHj-1">
          <mxGeometry y="231" width="760" height="199" as="geometry" />
        </mxCell>
        <mxCell id="ohGJP7qHhYxOtyRBbzHj-22" value="" style="swimlane;swimlaneHead=0;swimlaneBody=0;fontStyle=1;connectable=0;strokeColor=inherit;fillColor=none;startSize=0;collapsible=0;recursiveResize=0;expand=0;fontSize=16;" vertex="1" parent="ohGJP7qHhYxOtyRBbzHj-21">
          <mxGeometry x="40" width="206" height="199" as="geometry">
            <mxRectangle width="206" height="199" as="alternateBounds" />
          </mxGeometry>
        </mxCell>
        <mxCell id="ohGJP7qHhYxOtyRBbzHj-23" style="edgeStyle=orthogonalEdgeStyle;rounded=0;orthogonalLoop=1;jettySize=auto;html=1;" edge="1" parent="ohGJP7qHhYxOtyRBbzHj-22" source="ohGJP7qHhYxOtyRBbzHj-24" target="ohGJP7qHhYxOtyRBbzHj-25">
          <mxGeometry relative="1" as="geometry" />
        </mxCell>
        <mxCell id="ohGJP7qHhYxOtyRBbzHj-24" value="Busca&lt;div&gt;propiedades&lt;/div&gt;" style="points=[[0.25,0,0],[0.5,0,0],[0.75,0,0],[1,0.25,0],[1,0.5,0],[1,0.75,0],[0.75,1,0],[0.5,1,0],[0.25,1,0],[0,0.75,0],[0,0.5,0],[0,0.25,0]];shape=mxgraph.bpmn.task;whiteSpace=wrap;rectStyle=rounded;size=10;html=1;container=1;expand=0;collapsible=0;taskMarker=abstract;" vertex="1" parent="ohGJP7qHhYxOtyRBbzHj-22">
          <mxGeometry x="10" y="30" width="100" height="36.5" as="geometry" />
        </mxCell>
        <mxCell id="ohGJP7qHhYxOtyRBbzHj-25" value="" style="points=[[0.25,0.25,0],[0.5,0,0],[0.75,0.25,0],[1,0.5,0],[0.75,0.75,0],[0.5,1,0],[0.25,0.75,0],[0,0.5,0]];shape=mxgraph.bpmn.gateway2;html=1;verticalLabelPosition=bottom;labelBackgroundColor=#ffffff;verticalAlign=top;align=center;perimeter=rhombusPerimeter;outlineConnect=0;outline=none;symbol=none;" vertex="1" parent="ohGJP7qHhYxOtyRBbzHj-22">
          <mxGeometry x="114" y="87" width="50" height="50" as="geometry" />
        </mxCell>
        <mxCell id="ohGJP7qHhYxOtyRBbzHj-26" value="&lt;font style=&quot;vertical-align: inherit;&quot;&gt;&lt;font style=&quot;vertical-align: inherit;&quot;&gt;Disponible&lt;/font&gt;&lt;/font&gt;" style="text;html=1;align=center;verticalAlign=middle;whiteSpace=wrap;rounded=0;" vertex="1" parent="ohGJP7qHhYxOtyRBbzHj-22">
          <mxGeometry x="50" y="97" width="60" height="30" as="geometry" />
        </mxCell>
        <mxCell id="ohGJP7qHhYxOtyRBbzHj-27" value="Si" style="text;html=1;align=center;verticalAlign=middle;whiteSpace=wrap;rounded=0;" vertex="1" parent="ohGJP7qHhYxOtyRBbzHj-22">
          <mxGeometry x="150" y="87" width="60" height="30" as="geometry" />
        </mxCell>
        <mxCell id="ohGJP7qHhYxOtyRBbzHj-28" value="No" style="text;html=1;align=center;verticalAlign=middle;whiteSpace=wrap;rounded=0;" vertex="1" parent="ohGJP7qHhYxOtyRBbzHj-22">
          <mxGeometry x="150" y="117" width="60" height="30" as="geometry" />
        </mxCell>
        <mxCell id="ohGJP7qHhYxOtyRBbzHj-29" value="" style="swimlane;swimlaneHead=0;swimlaneBody=0;fontStyle=1;connectable=0;strokeColor=inherit;fillColor=none;startSize=0;collapsible=0;recursiveResize=0;expand=0;fontSize=16;" vertex="1" parent="ohGJP7qHhYxOtyRBbzHj-21">
          <mxGeometry x="246" width="414" height="199" as="geometry">
            <mxRectangle width="414" height="199" as="alternateBounds" />
          </mxGeometry>
        </mxCell>
        <mxCell id="ohGJP7qHhYxOtyRBbzHj-30" value="&lt;span style=&quot;color: rgb(68, 68, 68); font-family: Arial, sans-serif;&quot;&gt;Envía opciones al cliente&lt;/span&gt;" style="points=[[0.25,0,0],[0.5,0,0],[0.75,0,0],[1,0.25,0],[1,0.5,0],[1,0.75,0],[0.75,1,0],[0.5,1,0],[0.25,1,0],[0,0.75,0],[0,0.5,0],[0,0.25,0]];shape=mxgraph.bpmn.task;whiteSpace=wrap;rectStyle=rounded;size=10;html=1;container=1;expand=0;collapsible=0;taskMarker=abstract;" vertex="1" parent="ohGJP7qHhYxOtyRBbzHj-29">
          <mxGeometry x="4" y="50.5" width="86" height="36.5" as="geometry" />
        </mxCell>
        <mxCell id="ohGJP7qHhYxOtyRBbzHj-31" value="Ingresa venta" style="points=[[0.25,0,0],[0.5,0,0],[0.75,0,0],[1,0.25,0],[1,0.5,0],[1,0.75,0],[0.75,1,0],[0.5,1,0],[0.25,1,0],[0,0.75,0],[0,0.5,0],[0,0.25,0]];shape=mxgraph.bpmn.task;whiteSpace=wrap;rectStyle=rounded;size=10;html=1;container=1;expand=0;collapsible=0;taskMarker=abstract;" vertex="1" parent="ohGJP7qHhYxOtyRBbzHj-29">
          <mxGeometry x="324" y="26.5" width="86" height="36.5" as="geometry" />
        </mxCell>
        <mxCell id="ohGJP7qHhYxOtyRBbzHj-32" style="edgeStyle=orthogonalEdgeStyle;rounded=0;orthogonalLoop=1;jettySize=auto;html=1;" edge="1" parent="ohGJP7qHhYxOtyRBbzHj-29" source="ohGJP7qHhYxOtyRBbzHj-33" target="ohGJP7qHhYxOtyRBbzHj-37">
          <mxGeometry relative="1" as="geometry">
            <Array as="points">
              <mxPoint x="189" y="79" />
              <mxPoint x="189" y="86" />
            </Array>
          </mxGeometry>
        </mxCell>
        <mxCell id="ohGJP7qHhYxOtyRBbzHj-33" value="" style="points=[[0.25,0.25,0],[0.5,0,0],[0.75,0.25,0],[1,0.5,0],[0.75,0.75,0],[0.5,1,0],[0.25,0.75,0],[0,0.5,0]];shape=mxgraph.bpmn.gateway2;html=1;verticalLabelPosition=bottom;labelBackgroundColor=#ffffff;verticalAlign=top;align=center;perimeter=rhombusPerimeter;outlineConnect=0;outline=none;symbol=none;" vertex="1" parent="ohGJP7qHhYxOtyRBbzHj-29">
          <mxGeometry x="114" y="43.75" width="50" height="50" as="geometry" />
        </mxCell>
        <mxCell id="ohGJP7qHhYxOtyRBbzHj-34" value="Acepta oferta?" style="text;html=1;align=center;verticalAlign=middle;whiteSpace=wrap;rounded=0;" vertex="1" parent="ohGJP7qHhYxOtyRBbzHj-29">
          <mxGeometry x="98" y="93.75" width="82" height="30" as="geometry" />
        </mxCell>
        <mxCell id="ohGJP7qHhYxOtyRBbzHj-35" value="Si" style="text;html=1;align=center;verticalAlign=middle;whiteSpace=wrap;rounded=0;" vertex="1" parent="ohGJP7qHhYxOtyRBbzHj-29">
          <mxGeometry x="147.5" y="26.5" width="60" height="30" as="geometry" />
        </mxCell>
        <mxCell id="ohGJP7qHhYxOtyRBbzHj-36" value="No" style="text;html=1;align=center;verticalAlign=middle;whiteSpace=wrap;rounded=0;" vertex="1" parent="ohGJP7qHhYxOtyRBbzHj-29">
          <mxGeometry x="147.5" y="73.75" width="60" height="30" as="geometry" />
        </mxCell>
        <mxCell id="ohGJP7qHhYxOtyRBbzHj-37" value="&lt;font face=&quot;Arial, sans-serif&quot; color=&quot;#444444&quot;&gt;Negociacion con el cliente&lt;/font&gt;" style="points=[[0.25,0,0],[0.5,0,0],[0.75,0,0],[1,0.25,0],[1,0.5,0],[1,0.75,0],[0.75,1,0],[0.5,1,0],[0.25,1,0],[0,0.75,0],[0,0.5,0],[0,0.25,0]];shape=mxgraph.bpmn.task;whiteSpace=wrap;rectStyle=rounded;size=10;html=1;container=1;expand=0;collapsible=0;taskMarker=abstract;" vertex="1" parent="ohGJP7qHhYxOtyRBbzHj-29">
          <mxGeometry x="214" y="67.25" width="86" height="36.5" as="geometry" />
        </mxCell>
        <mxCell id="ohGJP7qHhYxOtyRBbzHj-38" value="" style="swimlane;swimlaneHead=0;swimlaneBody=0;fontStyle=1;connectable=0;strokeColor=inherit;fillColor=none;startSize=0;collapsible=0;recursiveResize=0;expand=0;fontSize=16;" vertex="1" parent="ohGJP7qHhYxOtyRBbzHj-21">
          <mxGeometry x="660" width="100" height="199" as="geometry">
            <mxRectangle width="100" height="199" as="alternateBounds" />
          </mxGeometry>
        </mxCell>
        <mxCell id="ohGJP7qHhYxOtyRBbzHj-39" value="" style="points=[[0.145,0.145,0],[0.5,0,0],[0.855,0.145,0],[1,0.5,0],[0.855,0.855,0],[0.5,1,0],[0.145,0.855,0],[0,0.5,0]];shape=mxgraph.bpmn.event;html=1;verticalLabelPosition=bottom;labelBackgroundColor=#ffffff;verticalAlign=top;align=center;perimeter=ellipsePerimeter;outlineConnect=0;aspect=fixed;outline=end;symbol=terminate;" vertex="1" parent="ohGJP7qHhYxOtyRBbzHj-38">
          <mxGeometry x="50" y="30" width="33" height="33" as="geometry" />
        </mxCell>
        <mxCell id="ohGJP7qHhYxOtyRBbzHj-40" value="" style="points=[[0.145,0.145,0],[0.5,0,0],[0.855,0.145,0],[1,0.5,0],[0.855,0.855,0],[0.5,1,0],[0.145,0.855,0],[0,0.5,0]];shape=mxgraph.bpmn.event;html=1;verticalLabelPosition=bottom;labelBackgroundColor=#ffffff;verticalAlign=top;align=center;perimeter=ellipsePerimeter;outlineConnect=0;aspect=fixed;outline=throwing;symbol=general;" vertex="1" parent="ohGJP7qHhYxOtyRBbzHj-38">
          <mxGeometry x="50" y="147" width="30" height="30" as="geometry" />
        </mxCell>
        <mxCell id="ohGJP7qHhYxOtyRBbzHj-41" style="edgeStyle=orthogonalEdgeStyle;rounded=0;orthogonalLoop=1;jettySize=auto;html=1;" edge="1" parent="ohGJP7qHhYxOtyRBbzHj-21" source="ohGJP7qHhYxOtyRBbzHj-25" target="ohGJP7qHhYxOtyRBbzHj-30">
          <mxGeometry relative="1" as="geometry">
            <Array as="points">
              <mxPoint x="290" y="112" />
            </Array>
          </mxGeometry>
        </mxCell>
        <mxCell id="ohGJP7qHhYxOtyRBbzHj-42" style="edgeStyle=orthogonalEdgeStyle;rounded=0;orthogonalLoop=1;jettySize=auto;html=1;" edge="1" parent="ohGJP7qHhYxOtyRBbzHj-21" source="ohGJP7qHhYxOtyRBbzHj-31" target="ohGJP7qHhYxOtyRBbzHj-39">
          <mxGeometry relative="1" as="geometry" />
        </mxCell>
        <mxCell id="ohGJP7qHhYxOtyRBbzHj-43" style="edgeStyle=orthogonalEdgeStyle;rounded=0;orthogonalLoop=1;jettySize=auto;html=1;entryX=0;entryY=0.5;entryDx=0;entryDy=0;entryPerimeter=0;" edge="1" parent="ohGJP7qHhYxOtyRBbzHj-21" source="ohGJP7qHhYxOtyRBbzHj-25" target="ohGJP7qHhYxOtyRBbzHj-40">
          <mxGeometry relative="1" as="geometry">
            <Array as="points">
              <mxPoint x="179" y="159" />
              <mxPoint x="457" y="159" />
              <mxPoint x="457" y="162" />
            </Array>
          </mxGeometry>
        </mxCell>
        <mxCell id="ohGJP7qHhYxOtyRBbzHj-44" style="edgeStyle=orthogonalEdgeStyle;rounded=0;orthogonalLoop=1;jettySize=auto;html=1;entryX=0.5;entryY=0;entryDx=0;entryDy=0;entryPerimeter=0;" edge="1" parent="ohGJP7qHhYxOtyRBbzHj-1" source="ohGJP7qHhYxOtyRBbzHj-5" target="ohGJP7qHhYxOtyRBbzHj-24">
          <mxGeometry relative="1" as="geometry" />
        </mxCell>
        <mxCell id="ohGJP7qHhYxOtyRBbzHj-45" style="edgeStyle=orthogonalEdgeStyle;rounded=0;orthogonalLoop=1;jettySize=auto;html=1;entryX=0.5;entryY=1;entryDx=0;entryDy=0;entryPerimeter=0;" edge="1" parent="ohGJP7qHhYxOtyRBbzHj-1" source="ohGJP7qHhYxOtyRBbzHj-30" target="ohGJP7qHhYxOtyRBbzHj-8">
          <mxGeometry relative="1" as="geometry">
            <mxPoint x="300" y="140" as="targetPoint" />
          </mxGeometry>
        </mxCell>
        <mxCell id="ohGJP7qHhYxOtyRBbzHj-46" style="edgeStyle=orthogonalEdgeStyle;rounded=0;orthogonalLoop=1;jettySize=auto;html=1;entryX=0.96;entryY=-0.055;entryDx=0;entryDy=0;entryPerimeter=0;" edge="1" parent="ohGJP7qHhYxOtyRBbzHj-1" source="ohGJP7qHhYxOtyRBbzHj-8" target="ohGJP7qHhYxOtyRBbzHj-24">
          <mxGeometry relative="1" as="geometry" />
        </mxCell>
        <mxCell id="ohGJP7qHhYxOtyRBbzHj-47" style="edgeStyle=orthogonalEdgeStyle;rounded=0;orthogonalLoop=1;jettySize=auto;html=1;entryX=0.5;entryY=0;entryDx=0;entryDy=0;entryPerimeter=0;" edge="1" parent="ohGJP7qHhYxOtyRBbzHj-1" source="ohGJP7qHhYxOtyRBbzHj-12" target="ohGJP7qHhYxOtyRBbzHj-31">
          <mxGeometry relative="1" as="geometry">
            <mxPoint x="515" y="280" as="targetPoint" />
          </mxGeometry>
        </mxCell>
        <mxCell id="ohGJP7qHhYxOtyRBbzHj-48" style="edgeStyle=orthogonalEdgeStyle;rounded=0;orthogonalLoop=1;jettySize=auto;html=1;entryX=0.5;entryY=0;entryDx=0;entryDy=0;entryPerimeter=0;" edge="1" parent="ohGJP7qHhYxOtyRBbzHj-1" source="ohGJP7qHhYxOtyRBbzHj-13" target="ohGJP7qHhYxOtyRBbzHj-33">
          <mxGeometry relative="1" as="geometry">
            <Array as="points">
              <mxPoint x="385" y="210" />
              <mxPoint x="385" y="210" />
            </Array>
          </mxGeometry>
        </mxCell>
        <mxCell id="ohGJP7qHhYxOtyRBbzHj-49" style="edgeStyle=orthogonalEdgeStyle;rounded=0;orthogonalLoop=1;jettySize=auto;html=1;entryX=0;entryY=0.5;entryDx=0;entryDy=0;entryPerimeter=0;" edge="1" parent="ohGJP7qHhYxOtyRBbzHj-1" source="ohGJP7qHhYxOtyRBbzHj-33" target="ohGJP7qHhYxOtyRBbzHj-12">
          <mxGeometry relative="1" as="geometry">
            <Array as="points">
              <mxPoint x="480" y="280" />
              <mxPoint x="480" y="110" />
              <mxPoint x="570" y="110" />
            </Array>
            <mxPoint x="520" y="169" as="targetPoint" />
          </mxGeometry>
        </mxCell>
        <mxCell id="ohGJP7qHhYxOtyRBbzHj-50" style="edgeStyle=orthogonalEdgeStyle;rounded=0;orthogonalLoop=1;jettySize=auto;html=1;" edge="1" parent="ohGJP7qHhYxOtyRBbzHj-1" source="ohGJP7qHhYxOtyRBbzHj-37" target="ohGJP7qHhYxOtyRBbzHj-15">
          <mxGeometry relative="1" as="geometry">
            <Array as="points">
              <mxPoint x="503" y="259" />
              <mxPoint x="506" y="259" />
              <mxPoint x="506" y="200" />
            </Array>
          </mxGeometry>
        </mxCell>
        <mxCell id="ohGJP7qHhYxOtyRBbzHj-51" style="edgeStyle=orthogonalEdgeStyle;rounded=0;orthogonalLoop=1;jettySize=auto;html=1;" edge="1" parent="ohGJP7qHhYxOtyRBbzHj-1" source="ohGJP7qHhYxOtyRBbzHj-15" target="ohGJP7qHhYxOtyRBbzHj-40">
          <mxGeometry relative="1" as="geometry">
            <Array as="points">
              <mxPoint x="556" y="360" />
              <mxPoint x="725" y="360" />
            </Array>
          </mxGeometry>
        </mxCell>
      </root>
    </mxGraphModel>
  </diagram>
  <diagram id="7l67NZjVfr8j-dZ0Y6zJ" name="Ventas - objetivo">
    <mxGraphModel dx="880" dy="434" grid="1" gridSize="10" guides="1" tooltips="1" connect="1" arrows="1" fold="1" page="1" pageScale="1" pageWidth="827" pageHeight="1169" math="0" shadow="0">
      <root>
        <mxCell id="0" />
        <mxCell id="1" parent="0" />
        <mxCell id="qsLNDVYkm1ipZSpGjP0M-1" value="Flujo de ventas de propiedades - Actual" style="shape=table;childLayout=tableLayout;startSize=40;collapsible=0;recursiveResize=0;expand=0;fontSize=16;fontStyle=1" vertex="1" parent="1">
          <mxGeometry x="40" y="60" width="760" height="560" as="geometry" />
        </mxCell>
        <mxCell id="qsLNDVYkm1ipZSpGjP0M-2" value="Cliente" style="shape=tableRow;horizontal=0;swimlaneHead=0;swimlaneBody=0;top=0;left=0;strokeColor=inherit;bottom=0;right=0;dropTarget=0;fontStyle=1;fillColor=none;points=[[0,0.5],[1,0.5]];portConstraint=eastwest;startSize=40;collapsible=0;recursiveResize=0;expand=0;fontSize=16;" vertex="1" parent="qsLNDVYkm1ipZSpGjP0M-1">
          <mxGeometry y="40" width="760" height="169" as="geometry" />
        </mxCell>
        <mxCell id="qsLNDVYkm1ipZSpGjP0M-3" value="Estado inicial" style="swimlane;swimlaneHead=0;swimlaneBody=0;fontStyle=1;strokeColor=inherit;connectable=0;fillColor=none;startSize=40;collapsible=0;recursiveResize=0;expand=0;fontSize=16;" vertex="1" parent="qsLNDVYkm1ipZSpGjP0M-2">
          <mxGeometry x="40" width="206" height="169" as="geometry">
            <mxRectangle width="206" height="169" as="alternateBounds" />
          </mxGeometry>
        </mxCell>
        <mxCell id="qsLNDVYkm1ipZSpGjP0M-4" value="" style="points=[[0.145,0.145,0],[0.5,0,0],[0.855,0.145,0],[1,0.5,0],[0.855,0.855,0],[0.5,1,0],[0.145,0.855,0],[0,0.5,0]];shape=mxgraph.bpmn.event;html=1;verticalLabelPosition=bottom;labelBackgroundColor=#ffffff;verticalAlign=top;align=center;perimeter=ellipsePerimeter;outlineConnect=0;aspect=fixed;outline=standard;symbol=general;" vertex="1" parent="qsLNDVYkm1ipZSpGjP0M-3">
          <mxGeometry x="10" y="50" width="30" height="30" as="geometry" />
        </mxCell>
        <mxCell id="qsLNDVYkm1ipZSpGjP0M-5" value="Solicita informacion&amp;nbsp;" style="points=[[0.25,0,0],[0.5,0,0],[0.75,0,0],[1,0.25,0],[1,0.5,0],[1,0.75,0],[0.75,1,0],[0.5,1,0],[0.25,1,0],[0,0.75,0],[0,0.5,0],[0,0.25,0]];shape=mxgraph.bpmn.task;whiteSpace=wrap;rectStyle=rounded;size=10;html=1;container=1;expand=0;collapsible=0;taskMarker=abstract;" vertex="1" parent="qsLNDVYkm1ipZSpGjP0M-3">
          <mxGeometry x="10" y="110" width="72" height="30" as="geometry" />
        </mxCell>
        <mxCell id="qsLNDVYkm1ipZSpGjP0M-6" style="edgeStyle=orthogonalEdgeStyle;rounded=0;orthogonalLoop=1;jettySize=auto;html=1;entryX=0.5;entryY=0;entryDx=0;entryDy=0;entryPerimeter=0;" edge="1" parent="qsLNDVYkm1ipZSpGjP0M-3" source="qsLNDVYkm1ipZSpGjP0M-4" target="qsLNDVYkm1ipZSpGjP0M-5">
          <mxGeometry relative="1" as="geometry">
            <Array as="points">
              <mxPoint x="46" y="65" />
            </Array>
          </mxGeometry>
        </mxCell>
        <mxCell id="qsLNDVYkm1ipZSpGjP0M-7" value="Estado Intermedio" style="swimlane;swimlaneHead=0;swimlaneBody=0;fontStyle=1;strokeColor=inherit;connectable=0;fillColor=none;startSize=40;collapsible=0;recursiveResize=0;expand=0;fontSize=16;" vertex="1" parent="qsLNDVYkm1ipZSpGjP0M-2">
          <mxGeometry x="246" width="414" height="169" as="geometry">
            <mxRectangle width="414" height="169" as="alternateBounds" />
          </mxGeometry>
        </mxCell>
        <mxCell id="qsLNDVYkm1ipZSpGjP0M-8" value="" style="points=[[0.25,0.25,0],[0.5,0,0],[0.75,0.25,0],[1,0.5,0],[0.75,0.75,0],[0.5,1,0],[0.25,0.75,0],[0,0.5,0]];shape=mxgraph.bpmn.gateway2;html=1;verticalLabelPosition=bottom;labelBackgroundColor=#ffffff;verticalAlign=top;align=center;perimeter=rhombusPerimeter;outlineConnect=0;outline=none;symbol=none;" vertex="1" parent="qsLNDVYkm1ipZSpGjP0M-7">
          <mxGeometry x="22" y="90" width="50" height="50" as="geometry" />
        </mxCell>
        <mxCell id="qsLNDVYkm1ipZSpGjP0M-9" value="Interesado?" style="text;html=1;align=center;verticalAlign=middle;whiteSpace=wrap;rounded=0;" vertex="1" parent="qsLNDVYkm1ipZSpGjP0M-7">
          <mxGeometry x="17" y="66.75" width="60" height="30" as="geometry" />
        </mxCell>
        <mxCell id="qsLNDVYkm1ipZSpGjP0M-10" value="Si" style="text;html=1;align=center;verticalAlign=middle;whiteSpace=wrap;rounded=0;" vertex="1" parent="qsLNDVYkm1ipZSpGjP0M-7">
          <mxGeometry x="44" y="90" width="60" height="30" as="geometry" />
        </mxCell>
        <mxCell id="qsLNDVYkm1ipZSpGjP0M-11" value="No" style="text;html=1;align=center;verticalAlign=middle;whiteSpace=wrap;rounded=0;" vertex="1" parent="qsLNDVYkm1ipZSpGjP0M-7">
          <mxGeometry x="-16" y="90" width="60" height="30" as="geometry" />
        </mxCell>
        <mxCell id="qsLNDVYkm1ipZSpGjP0M-12" value="&lt;font face=&quot;Arial, sans-serif&quot; color=&quot;#444444&quot;&gt;Firma contraro&lt;/font&gt;" style="points=[[0.25,0,0],[0.5,0,0],[0.75,0,0],[1,0.25,0],[1,0.5,0],[1,0.75,0],[0.75,1,0],[0.5,1,0],[0.25,1,0],[0,0.75,0],[0,0.5,0],[0,0.25,0]];shape=mxgraph.bpmn.task;whiteSpace=wrap;rectStyle=rounded;size=10;html=1;container=1;expand=0;collapsible=0;taskMarker=abstract;" vertex="1" parent="qsLNDVYkm1ipZSpGjP0M-7">
          <mxGeometry x="328" y="50" width="86" height="36.5" as="geometry" />
        </mxCell>
        <mxCell id="qsLNDVYkm1ipZSpGjP0M-13" value="&lt;font face=&quot;Arial, sans-serif&quot; color=&quot;#444444&quot;&gt;Realiza oferta&lt;/font&gt;" style="points=[[0.25,0,0],[0.5,0,0],[0.75,0,0],[1,0.25,0],[1,0.5,0],[1,0.75,0],[0.75,1,0],[0.5,1,0],[0.25,1,0],[0,0.75,0],[0,0.5,0],[0,0.25,0]];shape=mxgraph.bpmn.task;whiteSpace=wrap;rectStyle=rounded;size=10;html=1;container=1;expand=0;collapsible=0;taskMarker=abstract;" vertex="1" parent="qsLNDVYkm1ipZSpGjP0M-7">
          <mxGeometry x="124" y="110.25" width="86" height="36.5" as="geometry" />
        </mxCell>
        <mxCell id="qsLNDVYkm1ipZSpGjP0M-14" style="edgeStyle=orthogonalEdgeStyle;rounded=0;orthogonalLoop=1;jettySize=auto;html=1;entryX=0.25;entryY=0;entryDx=0;entryDy=0;entryPerimeter=0;" edge="1" parent="qsLNDVYkm1ipZSpGjP0M-7" source="qsLNDVYkm1ipZSpGjP0M-8" target="qsLNDVYkm1ipZSpGjP0M-13">
          <mxGeometry relative="1" as="geometry" />
        </mxCell>
        <mxCell id="qsLNDVYkm1ipZSpGjP0M-15" value="Si" style="text;html=1;align=center;verticalAlign=middle;whiteSpace=wrap;rounded=0;" vertex="1" parent="qsLNDVYkm1ipZSpGjP0M-7">
          <mxGeometry x="294" y="120" width="60" height="30" as="geometry" />
        </mxCell>
        <mxCell id="qsLNDVYkm1ipZSpGjP0M-16" value="No" style="text;html=1;align=center;verticalAlign=middle;whiteSpace=wrap;rounded=0;" vertex="1" parent="qsLNDVYkm1ipZSpGjP0M-7">
          <mxGeometry x="284" y="146.75" width="60" height="30" as="geometry" />
        </mxCell>
        <mxCell id="qsLNDVYkm1ipZSpGjP0M-17" value="Estado Final" style="swimlane;swimlaneHead=0;swimlaneBody=0;fontStyle=1;strokeColor=inherit;connectable=0;fillColor=none;startSize=40;collapsible=0;recursiveResize=0;expand=0;fontSize=16;" vertex="1" parent="qsLNDVYkm1ipZSpGjP0M-2">
          <mxGeometry x="660" width="100" height="169" as="geometry">
            <mxRectangle width="100" height="169" as="alternateBounds" />
          </mxGeometry>
        </mxCell>
        <mxCell id="qsLNDVYkm1ipZSpGjP0M-18" value="Sistema" style="shape=tableRow;horizontal=0;swimlaneHead=0;swimlaneBody=0;top=0;left=0;strokeColor=inherit;bottom=0;right=0;dropTarget=0;fontStyle=1;fillColor=none;points=[[0,0.5],[1,0.5]];portConstraint=eastwest;startSize=40;collapsible=0;recursiveResize=0;expand=0;fontSize=16;" vertex="1" parent="qsLNDVYkm1ipZSpGjP0M-1">
          <mxGeometry y="209" width="760" height="175" as="geometry" />
        </mxCell>
        <mxCell id="qsLNDVYkm1ipZSpGjP0M-19" value="" style="swimlane;swimlaneHead=0;swimlaneBody=0;fontStyle=1;connectable=0;strokeColor=inherit;fillColor=none;startSize=0;collapsible=0;recursiveResize=0;expand=0;fontSize=16;" vertex="1" parent="qsLNDVYkm1ipZSpGjP0M-18">
          <mxGeometry x="40" width="206" height="175" as="geometry">
            <mxRectangle width="206" height="175" as="alternateBounds" />
          </mxGeometry>
        </mxCell>
        <mxCell id="qsLNDVYkm1ipZSpGjP0M-20" style="edgeStyle=orthogonalEdgeStyle;rounded=0;orthogonalLoop=1;jettySize=auto;html=1;" edge="1" parent="qsLNDVYkm1ipZSpGjP0M-19" source="qsLNDVYkm1ipZSpGjP0M-21" target="qsLNDVYkm1ipZSpGjP0M-22">
          <mxGeometry relative="1" as="geometry" />
        </mxCell>
        <mxCell id="qsLNDVYkm1ipZSpGjP0M-21" value="Busca&lt;div&gt;propiedades&lt;/div&gt;" style="points=[[0.25,0,0],[0.5,0,0],[0.75,0,0],[1,0.25,0],[1,0.5,0],[1,0.75,0],[0.75,1,0],[0.5,1,0],[0.25,1,0],[0,0.75,0],[0,0.5,0],[0,0.25,0]];shape=mxgraph.bpmn.task;whiteSpace=wrap;rectStyle=rounded;size=10;html=1;container=1;expand=0;collapsible=0;taskMarker=abstract;" vertex="1" parent="qsLNDVYkm1ipZSpGjP0M-19">
          <mxGeometry x="10" y="30" width="100" height="36.5" as="geometry" />
        </mxCell>
        <mxCell id="qsLNDVYkm1ipZSpGjP0M-22" value="" style="points=[[0.25,0.25,0],[0.5,0,0],[0.75,0.25,0],[1,0.5,0],[0.75,0.75,0],[0.5,1,0],[0.25,0.75,0],[0,0.5,0]];shape=mxgraph.bpmn.gateway2;html=1;verticalLabelPosition=bottom;labelBackgroundColor=#ffffff;verticalAlign=top;align=center;perimeter=rhombusPerimeter;outlineConnect=0;outline=none;symbol=none;" vertex="1" parent="qsLNDVYkm1ipZSpGjP0M-19">
          <mxGeometry x="114" y="87" width="50" height="50" as="geometry" />
        </mxCell>
        <mxCell id="qsLNDVYkm1ipZSpGjP0M-23" value="&lt;font style=&quot;vertical-align: inherit;&quot;&gt;&lt;font style=&quot;vertical-align: inherit;&quot;&gt;Disponible&lt;/font&gt;&lt;/font&gt;" style="text;html=1;align=center;verticalAlign=middle;whiteSpace=wrap;rounded=0;" vertex="1" parent="qsLNDVYkm1ipZSpGjP0M-19">
          <mxGeometry x="50" y="97" width="60" height="30" as="geometry" />
        </mxCell>
        <mxCell id="qsLNDVYkm1ipZSpGjP0M-24" value="Si" style="text;html=1;align=center;verticalAlign=middle;whiteSpace=wrap;rounded=0;" vertex="1" parent="qsLNDVYkm1ipZSpGjP0M-19">
          <mxGeometry x="150" y="87" width="60" height="30" as="geometry" />
        </mxCell>
        <mxCell id="qsLNDVYkm1ipZSpGjP0M-25" value="No" style="text;html=1;align=center;verticalAlign=middle;whiteSpace=wrap;rounded=0;" vertex="1" parent="qsLNDVYkm1ipZSpGjP0M-19">
          <mxGeometry x="150" y="117" width="60" height="30" as="geometry" />
        </mxCell>
        <mxCell id="qsLNDVYkm1ipZSpGjP0M-26" value="" style="swimlane;swimlaneHead=0;swimlaneBody=0;fontStyle=1;connectable=0;strokeColor=inherit;fillColor=none;startSize=0;collapsible=0;recursiveResize=0;expand=0;fontSize=16;" vertex="1" parent="qsLNDVYkm1ipZSpGjP0M-18">
          <mxGeometry x="246" width="414" height="175" as="geometry">
            <mxRectangle width="414" height="175" as="alternateBounds" />
          </mxGeometry>
        </mxCell>
        <mxCell id="qsLNDVYkm1ipZSpGjP0M-27" value="&lt;span style=&quot;color: rgb(68, 68, 68); font-family: Arial, sans-serif;&quot;&gt;Envía opciones al cliente&lt;/span&gt;" style="points=[[0.25,0,0],[0.5,0,0],[0.75,0,0],[1,0.25,0],[1,0.5,0],[1,0.75,0],[0.75,1,0],[0.5,1,0],[0.25,1,0],[0,0.75,0],[0,0.5,0],[0,0.25,0]];shape=mxgraph.bpmn.task;whiteSpace=wrap;rectStyle=rounded;size=10;html=1;container=1;expand=0;collapsible=0;taskMarker=abstract;" vertex="1" parent="qsLNDVYkm1ipZSpGjP0M-26">
          <mxGeometry x="4" y="50.5" width="86" height="36.5" as="geometry" />
        </mxCell>
        <mxCell id="qsLNDVYkm1ipZSpGjP0M-28" value="Ingresa venta" style="points=[[0.25,0,0],[0.5,0,0],[0.75,0,0],[1,0.25,0],[1,0.5,0],[1,0.75,0],[0.75,1,0],[0.5,1,0],[0.25,1,0],[0,0.75,0],[0,0.5,0],[0,0.25,0]];shape=mxgraph.bpmn.task;whiteSpace=wrap;rectStyle=rounded;size=10;html=1;container=1;expand=0;collapsible=0;taskMarker=abstract;" vertex="1" parent="qsLNDVYkm1ipZSpGjP0M-26">
          <mxGeometry x="324" y="26.5" width="86" height="36.5" as="geometry" />
        </mxCell>
        <mxCell id="qsLNDVYkm1ipZSpGjP0M-29" value="" style="swimlane;swimlaneHead=0;swimlaneBody=0;fontStyle=1;connectable=0;strokeColor=inherit;fillColor=none;startSize=0;collapsible=0;recursiveResize=0;expand=0;fontSize=16;" vertex="1" parent="qsLNDVYkm1ipZSpGjP0M-18">
          <mxGeometry x="660" width="100" height="175" as="geometry">
            <mxRectangle width="100" height="175" as="alternateBounds" />
          </mxGeometry>
        </mxCell>
        <mxCell id="qsLNDVYkm1ipZSpGjP0M-30" value="" style="points=[[0.145,0.145,0],[0.5,0,0],[0.855,0.145,0],[1,0.5,0],[0.855,0.855,0],[0.5,1,0],[0.145,0.855,0],[0,0.5,0]];shape=mxgraph.bpmn.event;html=1;verticalLabelPosition=bottom;labelBackgroundColor=#ffffff;verticalAlign=top;align=center;perimeter=ellipsePerimeter;outlineConnect=0;aspect=fixed;outline=end;symbol=terminate;" vertex="1" parent="qsLNDVYkm1ipZSpGjP0M-29">
          <mxGeometry x="50" y="30" width="33" height="33" as="geometry" />
        </mxCell>
        <mxCell id="qsLNDVYkm1ipZSpGjP0M-31" value="" style="points=[[0.145,0.145,0],[0.5,0,0],[0.855,0.145,0],[1,0.5,0],[0.855,0.855,0],[0.5,1,0],[0.145,0.855,0],[0,0.5,0]];shape=mxgraph.bpmn.event;html=1;verticalLabelPosition=bottom;labelBackgroundColor=#ffffff;verticalAlign=top;align=center;perimeter=ellipsePerimeter;outlineConnect=0;aspect=fixed;outline=throwing;symbol=general;" vertex="1" parent="qsLNDVYkm1ipZSpGjP0M-29">
          <mxGeometry x="35" y="119" width="30" height="30" as="geometry" />
        </mxCell>
        <mxCell id="qsLNDVYkm1ipZSpGjP0M-32" style="edgeStyle=orthogonalEdgeStyle;rounded=0;orthogonalLoop=1;jettySize=auto;html=1;" edge="1" parent="qsLNDVYkm1ipZSpGjP0M-18" source="qsLNDVYkm1ipZSpGjP0M-22" target="qsLNDVYkm1ipZSpGjP0M-27">
          <mxGeometry relative="1" as="geometry">
            <Array as="points">
              <mxPoint x="290" y="112" />
            </Array>
          </mxGeometry>
        </mxCell>
        <mxCell id="qsLNDVYkm1ipZSpGjP0M-33" style="edgeStyle=orthogonalEdgeStyle;rounded=0;orthogonalLoop=1;jettySize=auto;html=1;" edge="1" parent="qsLNDVYkm1ipZSpGjP0M-18" source="qsLNDVYkm1ipZSpGjP0M-28" target="qsLNDVYkm1ipZSpGjP0M-30">
          <mxGeometry relative="1" as="geometry" />
        </mxCell>
        <mxCell id="qsLNDVYkm1ipZSpGjP0M-34" style="edgeStyle=orthogonalEdgeStyle;rounded=0;orthogonalLoop=1;jettySize=auto;html=1;entryX=0;entryY=0.5;entryDx=0;entryDy=0;entryPerimeter=0;" edge="1" parent="qsLNDVYkm1ipZSpGjP0M-18" source="qsLNDVYkm1ipZSpGjP0M-22" target="qsLNDVYkm1ipZSpGjP0M-31">
          <mxGeometry relative="1" as="geometry">
            <Array as="points">
              <mxPoint x="179" y="309" />
              <mxPoint x="695" y="309" />
            </Array>
          </mxGeometry>
        </mxCell>
        <mxCell id="qsLNDVYkm1ipZSpGjP0M-35" value="Agente" style="shape=tableRow;horizontal=0;swimlaneHead=0;swimlaneBody=0;top=0;left=0;strokeColor=inherit;bottom=0;right=0;dropTarget=0;fontStyle=1;fillColor=none;points=[[0,0.5],[1,0.5]];portConstraint=eastwest;startSize=40;collapsible=0;recursiveResize=0;expand=0;fontSize=16;" vertex="1" parent="qsLNDVYkm1ipZSpGjP0M-1">
          <mxGeometry y="384" width="760" height="176" as="geometry" />
        </mxCell>
        <mxCell id="qsLNDVYkm1ipZSpGjP0M-36" style="swimlane;swimlaneHead=0;swimlaneBody=0;fontStyle=1;connectable=0;strokeColor=inherit;fillColor=none;startSize=0;collapsible=0;recursiveResize=0;expand=0;fontSize=16;" vertex="1" parent="qsLNDVYkm1ipZSpGjP0M-35">
          <mxGeometry x="40" width="206" height="176" as="geometry">
            <mxRectangle width="206" height="176" as="alternateBounds" />
          </mxGeometry>
        </mxCell>
        <mxCell id="qsLNDVYkm1ipZSpGjP0M-37" style="swimlane;swimlaneHead=0;swimlaneBody=0;fontStyle=1;connectable=0;strokeColor=inherit;fillColor=none;startSize=0;collapsible=0;recursiveResize=0;expand=0;fontSize=16;" vertex="1" parent="qsLNDVYkm1ipZSpGjP0M-35">
          <mxGeometry x="246" width="414" height="176" as="geometry">
            <mxRectangle width="414" height="176" as="alternateBounds" />
          </mxGeometry>
        </mxCell>
        <mxCell id="qsLNDVYkm1ipZSpGjP0M-38" style="edgeStyle=orthogonalEdgeStyle;rounded=0;orthogonalLoop=1;jettySize=auto;html=1;" edge="1" parent="qsLNDVYkm1ipZSpGjP0M-37" source="qsLNDVYkm1ipZSpGjP0M-39" target="qsLNDVYkm1ipZSpGjP0M-43">
          <mxGeometry relative="1" as="geometry">
            <Array as="points">
              <mxPoint x="197" y="62.5" />
              <mxPoint x="197" y="69.5" />
            </Array>
          </mxGeometry>
        </mxCell>
        <mxCell id="qsLNDVYkm1ipZSpGjP0M-39" value="" style="points=[[0.25,0.25,0],[0.5,0,0],[0.75,0.25,0],[1,0.5,0],[0.75,0.75,0],[0.5,1,0],[0.25,0.75,0],[0,0.5,0]];shape=mxgraph.bpmn.gateway2;html=1;verticalLabelPosition=bottom;labelBackgroundColor=#ffffff;verticalAlign=top;align=center;perimeter=rhombusPerimeter;outlineConnect=0;outline=none;symbol=none;" vertex="1" parent="qsLNDVYkm1ipZSpGjP0M-37">
          <mxGeometry x="122" y="27.25" width="50" height="50" as="geometry" />
        </mxCell>
        <mxCell id="qsLNDVYkm1ipZSpGjP0M-40" value="Acepta oferta?" style="text;html=1;align=center;verticalAlign=middle;whiteSpace=wrap;rounded=0;" vertex="1" parent="qsLNDVYkm1ipZSpGjP0M-37">
          <mxGeometry x="106" y="77.25" width="82" height="30" as="geometry" />
        </mxCell>
        <mxCell id="qsLNDVYkm1ipZSpGjP0M-41" value="Si" style="text;html=1;align=center;verticalAlign=middle;whiteSpace=wrap;rounded=0;" vertex="1" parent="qsLNDVYkm1ipZSpGjP0M-37">
          <mxGeometry x="155.5" y="10" width="60" height="30" as="geometry" />
        </mxCell>
        <mxCell id="qsLNDVYkm1ipZSpGjP0M-42" value="No" style="text;html=1;align=center;verticalAlign=middle;whiteSpace=wrap;rounded=0;" vertex="1" parent="qsLNDVYkm1ipZSpGjP0M-37">
          <mxGeometry x="155.5" y="57.25" width="60" height="30" as="geometry" />
        </mxCell>
        <mxCell id="qsLNDVYkm1ipZSpGjP0M-43" value="&lt;font face=&quot;Arial, sans-serif&quot; color=&quot;#444444&quot;&gt;Negociacion con el cliente&lt;/font&gt;" style="points=[[0.25,0,0],[0.5,0,0],[0.75,0,0],[1,0.25,0],[1,0.5,0],[1,0.75,0],[0.75,1,0],[0.5,1,0],[0.25,1,0],[0,0.75,0],[0,0.5,0],[0,0.25,0]];shape=mxgraph.bpmn.task;whiteSpace=wrap;rectStyle=rounded;size=10;html=1;container=1;expand=0;collapsible=0;taskMarker=abstract;" vertex="1" parent="qsLNDVYkm1ipZSpGjP0M-37">
          <mxGeometry x="222" y="50.75" width="86" height="36.5" as="geometry" />
        </mxCell>
        <mxCell id="qsLNDVYkm1ipZSpGjP0M-44" style="swimlane;swimlaneHead=0;swimlaneBody=0;fontStyle=1;connectable=0;strokeColor=inherit;fillColor=none;startSize=0;collapsible=0;recursiveResize=0;expand=0;fontSize=16;" vertex="1" parent="qsLNDVYkm1ipZSpGjP0M-35">
          <mxGeometry x="660" width="100" height="176" as="geometry">
            <mxRectangle width="100" height="176" as="alternateBounds" />
          </mxGeometry>
        </mxCell>
        <mxCell id="qsLNDVYkm1ipZSpGjP0M-45" style="edgeStyle=orthogonalEdgeStyle;rounded=0;orthogonalLoop=1;jettySize=auto;html=1;entryX=0.5;entryY=0;entryDx=0;entryDy=0;entryPerimeter=0;" edge="1" parent="qsLNDVYkm1ipZSpGjP0M-1" source="qsLNDVYkm1ipZSpGjP0M-5" target="qsLNDVYkm1ipZSpGjP0M-21">
          <mxGeometry relative="1" as="geometry" />
        </mxCell>
        <mxCell id="qsLNDVYkm1ipZSpGjP0M-46" style="edgeStyle=orthogonalEdgeStyle;rounded=0;orthogonalLoop=1;jettySize=auto;html=1;entryX=0.5;entryY=1;entryDx=0;entryDy=0;entryPerimeter=0;" edge="1" parent="qsLNDVYkm1ipZSpGjP0M-1" source="qsLNDVYkm1ipZSpGjP0M-27" target="qsLNDVYkm1ipZSpGjP0M-8">
          <mxGeometry relative="1" as="geometry">
            <mxPoint x="300" y="140" as="targetPoint" />
          </mxGeometry>
        </mxCell>
        <mxCell id="qsLNDVYkm1ipZSpGjP0M-47" style="edgeStyle=orthogonalEdgeStyle;rounded=0;orthogonalLoop=1;jettySize=auto;html=1;entryX=0.96;entryY=-0.055;entryDx=0;entryDy=0;entryPerimeter=0;" edge="1" parent="qsLNDVYkm1ipZSpGjP0M-1" source="qsLNDVYkm1ipZSpGjP0M-8" target="qsLNDVYkm1ipZSpGjP0M-21">
          <mxGeometry relative="1" as="geometry" />
        </mxCell>
        <mxCell id="qsLNDVYkm1ipZSpGjP0M-48" style="edgeStyle=orthogonalEdgeStyle;rounded=0;orthogonalLoop=1;jettySize=auto;html=1;entryX=0.5;entryY=0;entryDx=0;entryDy=0;entryPerimeter=0;" edge="1" parent="qsLNDVYkm1ipZSpGjP0M-1" source="qsLNDVYkm1ipZSpGjP0M-12" target="qsLNDVYkm1ipZSpGjP0M-28">
          <mxGeometry relative="1" as="geometry">
            <mxPoint x="515" y="280" as="targetPoint" />
          </mxGeometry>
        </mxCell>
        <mxCell id="qsLNDVYkm1ipZSpGjP0M-49" style="edgeStyle=orthogonalEdgeStyle;rounded=0;orthogonalLoop=1;jettySize=auto;html=1;entryX=0;entryY=0.5;entryDx=0;entryDy=0;entryPerimeter=0;" edge="1" parent="qsLNDVYkm1ipZSpGjP0M-1" source="qsLNDVYkm1ipZSpGjP0M-39" target="qsLNDVYkm1ipZSpGjP0M-12">
          <mxGeometry relative="1" as="geometry">
            <Array as="points">
              <mxPoint x="410" y="280" />
              <mxPoint x="470" y="280" />
              <mxPoint x="470" y="100" />
              <mxPoint x="570" y="100" />
              <mxPoint x="570" y="108" />
            </Array>
          </mxGeometry>
        </mxCell>
        <mxCell id="qsLNDVYkm1ipZSpGjP0M-50" style="edgeStyle=orthogonalEdgeStyle;rounded=0;orthogonalLoop=1;jettySize=auto;html=1;" edge="1" parent="qsLNDVYkm1ipZSpGjP0M-1" source="qsLNDVYkm1ipZSpGjP0M-13" target="qsLNDVYkm1ipZSpGjP0M-39">
          <mxGeometry relative="1" as="geometry">
            <Array as="points">
              <mxPoint x="390" y="337" />
              <mxPoint x="391" y="337" />
            </Array>
          </mxGeometry>
        </mxCell>
        <mxCell id="qsLNDVYkm1ipZSpGjP0M-51" style="edgeStyle=orthogonalEdgeStyle;rounded=0;orthogonalLoop=1;jettySize=auto;html=1;" edge="1" parent="1" source="qsLNDVYkm1ipZSpGjP0M-52" target="qsLNDVYkm1ipZSpGjP0M-31">
          <mxGeometry relative="1" as="geometry">
            <Array as="points">
              <mxPoint x="590" y="403" />
            </Array>
          </mxGeometry>
        </mxCell>
        <mxCell id="qsLNDVYkm1ipZSpGjP0M-52" value="" style="points=[[0.25,0.25,0],[0.5,0,0],[0.75,0.25,0],[1,0.5,0],[0.75,0.75,0],[0.5,1,0],[0.25,0.75,0],[0,0.5,0]];shape=mxgraph.bpmn.gateway2;html=1;verticalLabelPosition=bottom;labelBackgroundColor=#ffffff;verticalAlign=top;align=center;perimeter=rhombusPerimeter;outlineConnect=0;outline=none;symbol=none;" vertex="1" parent="1">
          <mxGeometry x="560" y="220" width="40" height="40" as="geometry" />
        </mxCell>
        <mxCell id="qsLNDVYkm1ipZSpGjP0M-53" value="Llega a un acuerdo?" style="text;html=1;align=center;verticalAlign=middle;whiteSpace=wrap;rounded=0;" vertex="1" parent="1">
          <mxGeometry x="550" y="190" width="60" height="30" as="geometry" />
        </mxCell>
        <mxCell id="qsLNDVYkm1ipZSpGjP0M-54" style="edgeStyle=orthogonalEdgeStyle;rounded=0;orthogonalLoop=1;jettySize=auto;html=1;entryX=0.25;entryY=0.75;entryDx=0;entryDy=0;entryPerimeter=0;" edge="1" parent="1" source="qsLNDVYkm1ipZSpGjP0M-43" target="qsLNDVYkm1ipZSpGjP0M-52">
          <mxGeometry relative="1" as="geometry" />
        </mxCell>
        <mxCell id="qsLNDVYkm1ipZSpGjP0M-55" style="edgeStyle=orthogonalEdgeStyle;rounded=0;orthogonalLoop=1;jettySize=auto;html=1;entryX=0.25;entryY=1;entryDx=0;entryDy=0;entryPerimeter=0;" edge="1" parent="1" source="qsLNDVYkm1ipZSpGjP0M-52" target="qsLNDVYkm1ipZSpGjP0M-12">
          <mxGeometry relative="1" as="geometry" />
        </mxCell>
      </root>
    </mxGraphModel>
  </diagram>
  <diagram id="8VbnWx8yKkdWs5WtRD2Q" name="MODELO ARQUITECTONICO">
    <mxGraphModel dx="880" dy="434" grid="1" gridSize="10" guides="1" tooltips="1" connect="1" arrows="1" fold="1" page="1" pageScale="1" pageWidth="827" pageHeight="1169" math="0" shadow="0">
      <root>
        <mxCell id="0" />
        <mxCell id="1" parent="0" />
        <mxCell id="xiepM46YsarZuqj53aMJ-16" value="Business Interface" style="html=1;outlineConnect=0;whiteSpace=wrap;fillColor=#ffff99;shape=mxgraph.archimate3.application;appType=interface;archiType=square;verticalAlign=top;" parent="1" vertex="1">
          <mxGeometry x="249" y="420" width="335" height="115" as="geometry" />
        </mxCell>
        <mxCell id="xiepM46YsarZuqj53aMJ-2" value="&lt;font style=&quot;font-size: 21px;&quot;&gt;MODELO ARQUITECTONICO NEGOCIO - URBANI&lt;/font&gt;" style="text;html=1;align=center;verticalAlign=middle;whiteSpace=wrap;rounded=0;" parent="1" vertex="1">
          <mxGeometry x="236.5" y="80" width="360" height="30" as="geometry" />
        </mxCell>
        <mxCell id="xiepM46YsarZuqj53aMJ-8" value="Business Actor" style="html=1;outlineConnect=0;whiteSpace=wrap;fillColor=#ffff99;shape=mxgraph.archimate3.application;appType=actor;archiType=square;verticalAlign=top;" parent="1" vertex="1">
          <mxGeometry x="249" y="190" width="150" height="150" as="geometry" />
        </mxCell>
        <mxCell id="xiepM46YsarZuqj53aMJ-11" value="&lt;span style=&quot;font-size: 17px;&quot;&gt;Transaccion&lt;/span&gt;" style="html=1;outlineConnect=0;whiteSpace=wrap;fillColor=#ffff99;shape=mxgraph.archimate3.application;appType=contract;archiType=square;verticalAlign=top;" parent="1" vertex="1">
          <mxGeometry x="321.5" y="900" width="185" height="140" as="geometry" />
        </mxCell>
        <mxCell id="xiepM46YsarZuqj53aMJ-12" value="Venta" style="html=1;outlineConnect=0;whiteSpace=wrap;fillColor=#ffff99;shape=mxgraph.archimate3.contract;" parent="1" vertex="1">
          <mxGeometry x="351.5" y="930" width="125" height="90" as="geometry" />
        </mxCell>
        <mxCell id="xiepM46YsarZuqj53aMJ-21" style="edgeStyle=orthogonalEdgeStyle;rounded=0;orthogonalLoop=1;jettySize=auto;html=1;" parent="1" source="xiepM46YsarZuqj53aMJ-7" target="xiepM46YsarZuqj53aMJ-17" edge="1">
          <mxGeometry relative="1" as="geometry">
            <Array as="points">
              <mxPoint x="324" y="400" />
              <mxPoint x="284" y="400" />
            </Array>
          </mxGeometry>
        </mxCell>
        <mxCell id="xiepM46YsarZuqj53aMJ-22" style="edgeStyle=orthogonalEdgeStyle;rounded=0;orthogonalLoop=1;jettySize=auto;html=1;" parent="1" source="xiepM46YsarZuqj53aMJ-7" target="xiepM46YsarZuqj53aMJ-18" edge="1">
          <mxGeometry relative="1" as="geometry">
            <Array as="points">
              <mxPoint x="324" y="400" />
              <mxPoint x="364" y="400" />
            </Array>
          </mxGeometry>
        </mxCell>
        <mxCell id="xiepM46YsarZuqj53aMJ-24" style="edgeStyle=orthogonalEdgeStyle;rounded=0;orthogonalLoop=1;jettySize=auto;html=1;" parent="1" source="xiepM46YsarZuqj53aMJ-7" target="xiepM46YsarZuqj53aMJ-20" edge="1">
          <mxGeometry relative="1" as="geometry">
            <Array as="points">
              <mxPoint x="324" y="400" />
              <mxPoint x="529" y="400" />
            </Array>
          </mxGeometry>
        </mxCell>
        <mxCell id="xiepM46YsarZuqj53aMJ-7" value="" style="html=1;outlineConnect=0;whiteSpace=wrap;fillColor=#000000;verticalLabelPosition=bottom;verticalAlign=top;align=center;shape=mxgraph.archimate3.actor;strokeColor=#6D1F00;fontColor=#ffffff;gradientColor=none;" parent="1" vertex="1">
          <mxGeometry x="299" y="230" width="50" height="90" as="geometry" />
        </mxCell>
        <mxCell id="xiepM46YsarZuqj53aMJ-4" value="Cliente" style="text;html=1;align=center;verticalAlign=middle;whiteSpace=wrap;rounded=0;" parent="1" vertex="1">
          <mxGeometry x="294" y="310" width="60" height="30" as="geometry" />
        </mxCell>
        <mxCell id="xiepM46YsarZuqj53aMJ-13" value="Business Actor" style="html=1;outlineConnect=0;whiteSpace=wrap;fillColor=#ffff99;shape=mxgraph.archimate3.application;appType=actor;archiType=square;verticalAlign=top;" parent="1" vertex="1">
          <mxGeometry x="434" y="190" width="150" height="150" as="geometry" />
        </mxCell>
        <mxCell id="xiepM46YsarZuqj53aMJ-14" value="" style="html=1;outlineConnect=0;whiteSpace=wrap;fillColor=#000000;verticalLabelPosition=bottom;verticalAlign=top;align=center;shape=mxgraph.archimate3.actor;strokeColor=#6D1F00;fontColor=#ffffff;gradientColor=none;" parent="1" vertex="1">
          <mxGeometry x="484" y="230" width="50" height="90" as="geometry" />
        </mxCell>
        <mxCell id="xiepM46YsarZuqj53aMJ-15" value="Sistema" style="text;html=1;align=center;verticalAlign=middle;whiteSpace=wrap;rounded=0;" parent="1" vertex="1">
          <mxGeometry x="479" y="310" width="60" height="30" as="geometry" />
        </mxCell>
        <mxCell id="xiepM46YsarZuqj53aMJ-17" value="Crear venta" style="html=1;outlineConnect=0;whiteSpace=wrap;fillColor=#ffff99;shape=mxgraph.archimate3.interface;verticalAlign=bottom;fontStyle=1" parent="1" vertex="1">
          <mxGeometry x="249" y="475" width="70" height="35" as="geometry" />
        </mxCell>
        <mxCell id="xiepM46YsarZuqj53aMJ-18" value="Modificar venta" style="html=1;outlineConnect=0;whiteSpace=wrap;fillColor=#ffff99;shape=mxgraph.archimate3.interface;verticalAlign=bottom;fontStyle=1" parent="1" vertex="1">
          <mxGeometry x="329" y="475" width="70" height="35" as="geometry" />
        </mxCell>
        <mxCell id="xiepM46YsarZuqj53aMJ-19" value="Retirar venta" style="html=1;outlineConnect=0;whiteSpace=wrap;fillColor=#ffff99;shape=mxgraph.archimate3.interface;verticalAlign=bottom;fontStyle=1" parent="1" vertex="1">
          <mxGeometry x="414" y="475" width="70" height="35" as="geometry" />
        </mxCell>
        <mxCell id="xiepM46YsarZuqj53aMJ-20" value="Consultar venta" style="html=1;outlineConnect=0;whiteSpace=wrap;fillColor=#ffff99;shape=mxgraph.archimate3.interface;verticalAlign=bottom;fontStyle=1" parent="1" vertex="1">
          <mxGeometry x="504" y="475" width="70" height="35" as="geometry" />
        </mxCell>
        <mxCell id="xiepM46YsarZuqj53aMJ-23" style="edgeStyle=orthogonalEdgeStyle;rounded=0;orthogonalLoop=1;jettySize=auto;html=1;entryX=0.75;entryY=0;entryDx=0;entryDy=0;entryPerimeter=0;" parent="1" source="xiepM46YsarZuqj53aMJ-7" target="xiepM46YsarZuqj53aMJ-19" edge="1">
          <mxGeometry relative="1" as="geometry">
            <Array as="points">
              <mxPoint x="324" y="400" />
              <mxPoint x="467" y="400" />
            </Array>
          </mxGeometry>
        </mxCell>
        <mxCell id="xiepM46YsarZuqj53aMJ-26" style="edgeStyle=orthogonalEdgeStyle;rounded=0;orthogonalLoop=1;jettySize=auto;html=1;entryX=0.75;entryY=0;entryDx=0;entryDy=0;entryPerimeter=0;" parent="1" source="xiepM46YsarZuqj53aMJ-14" target="xiepM46YsarZuqj53aMJ-19" edge="1">
          <mxGeometry relative="1" as="geometry">
            <Array as="points">
              <mxPoint x="509" y="400" />
              <mxPoint x="467" y="400" />
            </Array>
          </mxGeometry>
        </mxCell>
        <mxCell id="xiepM46YsarZuqj53aMJ-44" style="edgeStyle=orthogonalEdgeStyle;rounded=0;orthogonalLoop=1;jettySize=auto;html=1;" parent="1" source="xiepM46YsarZuqj53aMJ-27" target="xiepM46YsarZuqj53aMJ-41" edge="1">
          <mxGeometry relative="1" as="geometry" />
        </mxCell>
        <mxCell id="xiepM46YsarZuqj53aMJ-45" style="edgeStyle=orthogonalEdgeStyle;rounded=0;orthogonalLoop=1;jettySize=auto;html=1;" parent="1" source="xiepM46YsarZuqj53aMJ-27" target="xiepM46YsarZuqj53aMJ-39" edge="1">
          <mxGeometry relative="1" as="geometry" />
        </mxCell>
        <mxCell id="xiepM46YsarZuqj53aMJ-27" value="Business Service" style="html=1;outlineConnect=0;whiteSpace=wrap;fillColor=#ffff99;shape=mxgraph.archimate3.application;appType=serv;archiType=rounded;verticalAlign=top;" parent="1" vertex="1">
          <mxGeometry x="249" y="590" width="335" height="100" as="geometry" />
        </mxCell>
        <mxCell id="xiepM46YsarZuqj53aMJ-28" value="VENTA" style="html=1;outlineConnect=0;whiteSpace=wrap;fillColor=#ffff99;shape=mxgraph.archimate3.service;" parent="1" vertex="1">
          <mxGeometry x="304" y="622.5" width="220" height="47.5" as="geometry" />
        </mxCell>
        <mxCell id="xiepM46YsarZuqj53aMJ-29" style="edgeStyle=orthogonalEdgeStyle;rounded=0;orthogonalLoop=1;jettySize=auto;html=1;entryX=0;entryY=0;entryDx=0;entryDy=23.75;entryPerimeter=0;" parent="1" source="xiepM46YsarZuqj53aMJ-17" target="xiepM46YsarZuqj53aMJ-28" edge="1">
          <mxGeometry relative="1" as="geometry" />
        </mxCell>
        <mxCell id="xiepM46YsarZuqj53aMJ-30" style="edgeStyle=orthogonalEdgeStyle;rounded=0;orthogonalLoop=1;jettySize=auto;html=1;entryX=0;entryY=0;entryDx=23.75;entryDy=0;entryPerimeter=0;" parent="1" source="xiepM46YsarZuqj53aMJ-18" target="xiepM46YsarZuqj53aMJ-28" edge="1">
          <mxGeometry relative="1" as="geometry" />
        </mxCell>
        <mxCell id="xiepM46YsarZuqj53aMJ-31" style="edgeStyle=orthogonalEdgeStyle;rounded=0;orthogonalLoop=1;jettySize=auto;html=1;entryX=0;entryY=0;entryDx=196.25;entryDy=0;entryPerimeter=0;" parent="1" source="xiepM46YsarZuqj53aMJ-19" target="xiepM46YsarZuqj53aMJ-28" edge="1">
          <mxGeometry relative="1" as="geometry" />
        </mxCell>
        <mxCell id="xiepM46YsarZuqj53aMJ-32" style="edgeStyle=orthogonalEdgeStyle;rounded=0;orthogonalLoop=1;jettySize=auto;html=1;entryX=0;entryY=0;entryDx=220;entryDy=23.75;entryPerimeter=0;" parent="1" source="xiepM46YsarZuqj53aMJ-20" target="xiepM46YsarZuqj53aMJ-28" edge="1">
          <mxGeometry relative="1" as="geometry">
            <Array as="points">
              <mxPoint x="539" y="646" />
            </Array>
          </mxGeometry>
        </mxCell>
        <mxCell id="xiepM46YsarZuqj53aMJ-33" value="Product" style="html=1;outlineConnect=0;whiteSpace=wrap;fillColor=#ffff99;shape=mxgraph.archimate3.application;appType=product;archiType=square;" parent="1" vertex="1">
          <mxGeometry x="339" y="1080" width="150" height="75" as="geometry" />
        </mxCell>
        <mxCell id="xiepM46YsarZuqj53aMJ-34" style="edgeStyle=orthogonalEdgeStyle;rounded=0;orthogonalLoop=1;jettySize=auto;html=1;entryX=0.5;entryY=0;entryDx=0;entryDy=0;entryPerimeter=0;" parent="1" source="xiepM46YsarZuqj53aMJ-11" target="xiepM46YsarZuqj53aMJ-33" edge="1">
          <mxGeometry relative="1" as="geometry" />
        </mxCell>
        <mxCell id="xiepM46YsarZuqj53aMJ-47" style="edgeStyle=orthogonalEdgeStyle;rounded=0;orthogonalLoop=1;jettySize=auto;html=1;" parent="1" source="xiepM46YsarZuqj53aMJ-35" target="xiepM46YsarZuqj53aMJ-11" edge="1">
          <mxGeometry relative="1" as="geometry">
            <Array as="points">
              <mxPoint x="149" y="970" />
            </Array>
          </mxGeometry>
        </mxCell>
        <mxCell id="xiepM46YsarZuqj53aMJ-35" value="Business Process" style="html=1;outlineConnect=0;whiteSpace=wrap;fillColor=#ffff99;shape=mxgraph.archimate3.application;appType=proc;archiType=rounded;verticalAlign=top;" parent="1" vertex="1">
          <mxGeometry x="74" y="730" width="150" height="130" as="geometry" />
        </mxCell>
        <mxCell id="xiepM46YsarZuqj53aMJ-36" value="Ingresar venta" style="html=1;outlineConnect=0;whiteSpace=wrap;fillColor=#ffff99;shape=mxgraph.archimate3.process;" parent="1" vertex="1">
          <mxGeometry x="119" y="760" width="60" height="90" as="geometry" />
        </mxCell>
        <mxCell id="xiepM46YsarZuqj53aMJ-37" value="Business Process" style="html=1;outlineConnect=0;whiteSpace=wrap;fillColor=#ffff99;shape=mxgraph.archimate3.application;appType=proc;archiType=rounded;verticalAlign=top;" parent="1" vertex="1">
          <mxGeometry x="249" y="730" width="150" height="130" as="geometry" />
        </mxCell>
        <mxCell id="xiepM46YsarZuqj53aMJ-38" value="Modificar venta" style="html=1;outlineConnect=0;whiteSpace=wrap;fillColor=#ffff99;shape=mxgraph.archimate3.process;" parent="1" vertex="1">
          <mxGeometry x="294" y="760" width="60" height="90" as="geometry" />
        </mxCell>
        <mxCell id="xiepM46YsarZuqj53aMJ-49" style="edgeStyle=orthogonalEdgeStyle;rounded=0;orthogonalLoop=1;jettySize=auto;html=1;entryX=0.75;entryY=0;entryDx=0;entryDy=0;entryPerimeter=0;" parent="1" source="xiepM46YsarZuqj53aMJ-39" target="xiepM46YsarZuqj53aMJ-11" edge="1">
          <mxGeometry relative="1" as="geometry" />
        </mxCell>
        <mxCell id="xiepM46YsarZuqj53aMJ-39" value="Business Process" style="html=1;outlineConnect=0;whiteSpace=wrap;fillColor=#ffff99;shape=mxgraph.archimate3.application;appType=proc;archiType=rounded;verticalAlign=top;" parent="1" vertex="1">
          <mxGeometry x="424" y="730" width="150" height="130" as="geometry" />
        </mxCell>
        <mxCell id="xiepM46YsarZuqj53aMJ-40" value="Retirar venta" style="html=1;outlineConnect=0;whiteSpace=wrap;fillColor=#ffff99;shape=mxgraph.archimate3.process;" parent="1" vertex="1">
          <mxGeometry x="469" y="760" width="60" height="90" as="geometry" />
        </mxCell>
        <mxCell id="xiepM46YsarZuqj53aMJ-41" value="Business Process" style="html=1;outlineConnect=0;whiteSpace=wrap;fillColor=#ffff99;shape=mxgraph.archimate3.application;appType=proc;archiType=rounded;verticalAlign=top;" parent="1" vertex="1">
          <mxGeometry x="604" y="730" width="150" height="130" as="geometry" />
        </mxCell>
        <mxCell id="xiepM46YsarZuqj53aMJ-42" value="Consultar venta" style="html=1;outlineConnect=0;whiteSpace=wrap;fillColor=#ffff99;shape=mxgraph.archimate3.process;" parent="1" vertex="1">
          <mxGeometry x="649" y="760" width="60" height="90" as="geometry" />
        </mxCell>
        <mxCell id="xiepM46YsarZuqj53aMJ-43" style="edgeStyle=orthogonalEdgeStyle;rounded=0;orthogonalLoop=1;jettySize=auto;html=1;entryX=0.5;entryY=0;entryDx=0;entryDy=0;entryPerimeter=0;" parent="1" source="xiepM46YsarZuqj53aMJ-27" target="xiepM46YsarZuqj53aMJ-35" edge="1">
          <mxGeometry relative="1" as="geometry" />
        </mxCell>
        <mxCell id="xiepM46YsarZuqj53aMJ-46" style="edgeStyle=orthogonalEdgeStyle;rounded=0;orthogonalLoop=1;jettySize=auto;html=1;entryX=0.5;entryY=0;entryDx=0;entryDy=0;entryPerimeter=0;" parent="1" source="xiepM46YsarZuqj53aMJ-27" target="xiepM46YsarZuqj53aMJ-37" edge="1">
          <mxGeometry relative="1" as="geometry" />
        </mxCell>
        <mxCell id="xiepM46YsarZuqj53aMJ-48" style="edgeStyle=orthogonalEdgeStyle;rounded=0;orthogonalLoop=1;jettySize=auto;html=1;entryX=1;entryY=0.5;entryDx=0;entryDy=0;entryPerimeter=0;" parent="1" source="xiepM46YsarZuqj53aMJ-41" target="xiepM46YsarZuqj53aMJ-11" edge="1">
          <mxGeometry relative="1" as="geometry">
            <Array as="points">
              <mxPoint x="684" y="970" />
            </Array>
          </mxGeometry>
        </mxCell>
        <mxCell id="xiepM46YsarZuqj53aMJ-50" style="edgeStyle=orthogonalEdgeStyle;rounded=0;orthogonalLoop=1;jettySize=auto;html=1;entryX=0.25;entryY=0;entryDx=0;entryDy=0;entryPerimeter=0;" parent="1" source="xiepM46YsarZuqj53aMJ-37" target="xiepM46YsarZuqj53aMJ-11" edge="1">
          <mxGeometry relative="1" as="geometry" />
        </mxCell>
      </root>
    </mxGraphModel>
  </diagram>
  <diagram id="TxQgyhN0wNlDpQPuLcFa" name="OBJETOS NEGOCIO ">
    <mxGraphModel dx="880" dy="434" grid="1" gridSize="10" guides="1" tooltips="1" connect="1" arrows="1" fold="1" page="1" pageScale="1" pageWidth="827" pageHeight="1169" math="0" shadow="0">
      <root>
        <mxCell id="0" />
        <mxCell id="1" parent="0" />
        <mxCell id="37TBZBCKEFRjg2R77PS_-1" value="&lt;font style=&quot;font-size: 21px;&quot;&gt;OBJETOS NEGOCIO ALTO VALOR&amp;nbsp;&amp;nbsp;- URBANI&lt;/font&gt;" style="text;html=1;align=center;verticalAlign=middle;whiteSpace=wrap;rounded=0;" parent="1" vertex="1">
          <mxGeometry x="236.5" y="80" width="360" height="30" as="geometry" />
        </mxCell>
        <mxCell id="9ywhL-xvNWMc_nrIBmhD-6" value="" style="ellipse;whiteSpace=wrap;html=1;aspect=fixed;" parent="1" vertex="1">
          <mxGeometry x="356.5" y="290" width="120" height="120" as="geometry" />
        </mxCell>
        <mxCell id="c0tFynrSpRuVFGLftKWx-1" value="&lt;span style=&quot;color: rgb(0, 0, 0); font-family: Helvetica; font-size: 17px; font-style: normal; font-variant-ligatures: normal; font-variant-caps: normal; font-weight: 400; letter-spacing: normal; orphans: 2; text-align: center; text-indent: 0px; text-transform: none; widows: 2; word-spacing: 0px; -webkit-text-stroke-width: 0px; white-space: normal; background-color: rgb(251, 251, 251); text-decoration-thickness: initial; text-decoration-style: initial; text-decoration-color: initial; display: inline !important; float: none;&quot;&gt;Transaccion&lt;/span&gt;" style="text;whiteSpace=wrap;html=1;" parent="1" vertex="1">
          <mxGeometry x="369" y="330" width="95" height="40" as="geometry" />
        </mxCell>
        <mxCell id="yw1cn83Wmxery_dKRhpc-1" style="edgeStyle=orthogonalEdgeStyle;rounded=0;orthogonalLoop=1;jettySize=auto;html=1;entryX=1;entryY=0.5;entryDx=0;entryDy=0;" parent="1" source="c0tFynrSpRuVFGLftKWx-2" target="9ywhL-xvNWMc_nrIBmhD-6" edge="1">
          <mxGeometry relative="1" as="geometry" />
        </mxCell>
        <mxCell id="c0tFynrSpRuVFGLftKWx-2" value="" style="ellipse;whiteSpace=wrap;html=1;aspect=fixed;" parent="1" vertex="1">
          <mxGeometry x="510" y="290" width="120" height="120" as="geometry" />
        </mxCell>
        <mxCell id="yw1cn83Wmxery_dKRhpc-4" style="edgeStyle=orthogonalEdgeStyle;rounded=0;orthogonalLoop=1;jettySize=auto;html=1;" parent="1" source="c0tFynrSpRuVFGLftKWx-3" target="9ywhL-xvNWMc_nrIBmhD-6" edge="1">
          <mxGeometry relative="1" as="geometry" />
        </mxCell>
        <mxCell id="c0tFynrSpRuVFGLftKWx-3" value="" style="ellipse;whiteSpace=wrap;html=1;aspect=fixed;" parent="1" vertex="1">
          <mxGeometry x="356.5" y="140" width="120" height="120" as="geometry" />
        </mxCell>
        <mxCell id="yw1cn83Wmxery_dKRhpc-2" style="edgeStyle=orthogonalEdgeStyle;rounded=0;orthogonalLoop=1;jettySize=auto;html=1;entryX=0;entryY=0.5;entryDx=0;entryDy=0;" parent="1" source="c0tFynrSpRuVFGLftKWx-4" target="9ywhL-xvNWMc_nrIBmhD-6" edge="1">
          <mxGeometry relative="1" as="geometry" />
        </mxCell>
        <mxCell id="c0tFynrSpRuVFGLftKWx-4" value="" style="ellipse;whiteSpace=wrap;html=1;aspect=fixed;" parent="1" vertex="1">
          <mxGeometry x="200" y="290" width="120" height="120" as="geometry" />
        </mxCell>
        <mxCell id="yw1cn83Wmxery_dKRhpc-3" style="edgeStyle=orthogonalEdgeStyle;rounded=0;orthogonalLoop=1;jettySize=auto;html=1;entryX=0.5;entryY=1;entryDx=0;entryDy=0;" parent="1" source="c0tFynrSpRuVFGLftKWx-5" target="9ywhL-xvNWMc_nrIBmhD-6" edge="1">
          <mxGeometry relative="1" as="geometry" />
        </mxCell>
        <mxCell id="c0tFynrSpRuVFGLftKWx-5" value="" style="ellipse;whiteSpace=wrap;html=1;aspect=fixed;" parent="1" vertex="1">
          <mxGeometry x="356.5" y="450" width="120" height="120" as="geometry" />
        </mxCell>
        <mxCell id="bp6qeqE4hTU1IEzp7qno-1" value="&lt;span style=&quot;color: rgb(0, 0, 0); font-family: Helvetica; font-size: 17px; font-style: normal; font-variant-ligatures: normal; font-variant-caps: normal; font-weight: 400; letter-spacing: normal; orphans: 2; text-align: center; text-indent: 0px; text-transform: none; widows: 2; word-spacing: 0px; -webkit-text-stroke-width: 0px; white-space: normal; background-color: rgb(251, 251, 251); text-decoration-thickness: initial; text-decoration-style: initial; text-decoration-color: initial; display: inline !important; float: none;&quot;&gt;Geografia&lt;/span&gt;" style="text;whiteSpace=wrap;html=1;" parent="1" vertex="1">
          <mxGeometry x="376" y="180" width="81" height="40" as="geometry" />
        </mxCell>
        <mxCell id="bp6qeqE4hTU1IEzp7qno-2" value="&lt;div style=&quot;text-align: center;&quot;&gt;&lt;span style=&quot;background-color: initial; font-size: 17px;&quot;&gt;Producto&lt;/span&gt;&lt;/div&gt;" style="text;whiteSpace=wrap;html=1;" parent="1" vertex="1">
          <mxGeometry x="531.25" y="330" width="77.5" height="40" as="geometry" />
        </mxCell>
        <mxCell id="bp6qeqE4hTU1IEzp7qno-3" value="&lt;span style=&quot;color: rgb(0, 0, 0); font-family: Helvetica; font-size: 17px; font-style: normal; font-variant-ligatures: normal; font-variant-caps: normal; font-weight: 400; letter-spacing: normal; orphans: 2; text-align: center; text-indent: 0px; text-transform: none; widows: 2; word-spacing: 0px; -webkit-text-stroke-width: 0px; white-space: normal; background-color: rgb(251, 251, 251); text-decoration-thickness: initial; text-decoration-style: initial; text-decoration-color: initial; display: inline !important; float: none;&quot;&gt;Empresa&lt;/span&gt;" style="text;whiteSpace=wrap;html=1;" parent="1" vertex="1">
          <mxGeometry x="221.25" y="330" width="77.5" height="40" as="geometry" />
        </mxCell>
        <mxCell id="bp6qeqE4hTU1IEzp7qno-4" value="&lt;div style=&quot;text-align: center;&quot;&gt;&lt;span style=&quot;background-color: initial; font-size: 17px;&quot;&gt;Usuario&lt;/span&gt;&lt;/div&gt;" style="text;whiteSpace=wrap;html=1;" parent="1" vertex="1">
          <mxGeometry x="386" y="490" width="61" height="40" as="geometry" />
        </mxCell>
      </root>
    </mxGraphModel>
  </diagram>
  <diagram id="MJ8mlJMs96_kzvk8TjZg" name="ENTIDADES NEGOCIO">
    <mxGraphModel dx="1035" dy="511" grid="1" gridSize="10" guides="1" tooltips="1" connect="1" arrows="1" fold="1" page="1" pageScale="1" pageWidth="827" pageHeight="1169" math="0" shadow="0">
      <root>
        <mxCell id="0" />
        <mxCell id="1" parent="0" />
        <mxCell id="egA1XDse-XrGJ6Tr9GRG-1" value="&lt;font style=&quot;font-size: 21px;&quot;&gt;ENTIDADES NEGOCIO ALTO VALOR - URBANI&lt;/font&gt;" style="text;html=1;align=center;verticalAlign=middle;whiteSpace=wrap;rounded=0;" parent="1" vertex="1">
          <mxGeometry x="174" y="40" width="480" height="30" as="geometry" />
        </mxCell>
        <mxCell id="wv1aUDyjZDVNUsxtJ_1p-1" value="" style="ellipse;whiteSpace=wrap;html=1;aspect=fixed;" parent="1" vertex="1">
          <mxGeometry x="44" y="100" width="310" height="310" as="geometry" />
        </mxCell>
        <mxCell id="wnsPmOyVE-Uv37FJfm_g-1" value="&lt;span style=&quot;color: rgb(0, 0, 0); font-family: Helvetica; font-size: 17px; font-style: normal; font-variant-ligatures: normal; font-variant-caps: normal; font-weight: 400; letter-spacing: normal; orphans: 2; text-align: center; text-indent: 0px; text-transform: none; widows: 2; word-spacing: 0px; -webkit-text-stroke-width: 0px; white-space: normal; background-color: rgb(251, 251, 251); text-decoration-thickness: initial; text-decoration-style: initial; text-decoration-color: initial; display: inline !important; float: none;&quot;&gt;Geografia&lt;/span&gt;" style="text;whiteSpace=wrap;html=1;" parent="1" vertex="1">
          <mxGeometry x="158.5" y="110" width="81" height="40" as="geometry" />
        </mxCell>
        <mxCell id="wnsPmOyVE-Uv37FJfm_g-2" value="" style="ellipse;whiteSpace=wrap;html=1;aspect=fixed;" parent="1" vertex="1">
          <mxGeometry x="74" y="160" width="120" height="120" as="geometry" />
        </mxCell>
        <mxCell id="wnsPmOyVE-Uv37FJfm_g-3" value="" style="ellipse;whiteSpace=wrap;html=1;aspect=fixed;" parent="1" vertex="1">
          <mxGeometry x="204" y="160" width="120" height="120" as="geometry" />
        </mxCell>
        <mxCell id="wnsPmOyVE-Uv37FJfm_g-4" value="" style="ellipse;whiteSpace=wrap;html=1;aspect=fixed;" parent="1" vertex="1">
          <mxGeometry x="139" y="270" width="120" height="120" as="geometry" />
        </mxCell>
        <mxCell id="wnsPmOyVE-Uv37FJfm_g-5" value="Ciudad" style="text;html=1;align=center;verticalAlign=middle;whiteSpace=wrap;rounded=0;" parent="1" vertex="1">
          <mxGeometry x="104" y="205" width="60" height="30" as="geometry" />
        </mxCell>
        <mxCell id="wnsPmOyVE-Uv37FJfm_g-6" value="Pais" style="text;html=1;align=center;verticalAlign=middle;whiteSpace=wrap;rounded=0;" parent="1" vertex="1">
          <mxGeometry x="234" y="205" width="60" height="30" as="geometry" />
        </mxCell>
        <mxCell id="wnsPmOyVE-Uv37FJfm_g-7" value="Departamento" style="text;html=1;align=center;verticalAlign=middle;whiteSpace=wrap;rounded=0;" parent="1" vertex="1">
          <mxGeometry x="169" y="315" width="60" height="30" as="geometry" />
        </mxCell>
        <mxCell id="wnsPmOyVE-Uv37FJfm_g-8" value="" style="ellipse;whiteSpace=wrap;html=1;aspect=fixed;" parent="1" vertex="1">
          <mxGeometry x="474" y="100" width="310" height="310" as="geometry" />
        </mxCell>
        <mxCell id="wnsPmOyVE-Uv37FJfm_g-9" value="&lt;span style=&quot;color: rgb(0, 0, 0); font-family: Helvetica; font-size: 17px; font-style: normal; font-variant-ligatures: normal; font-variant-caps: normal; font-weight: 400; letter-spacing: normal; orphans: 2; text-align: center; text-indent: 0px; text-transform: none; widows: 2; word-spacing: 0px; -webkit-text-stroke-width: 0px; white-space: normal; background-color: rgb(251, 251, 251); text-decoration-thickness: initial; text-decoration-style: initial; text-decoration-color: initial; display: inline !important; float: none;&quot;&gt;Empresa&lt;/span&gt;" style="text;whiteSpace=wrap;html=1;" parent="1" vertex="1">
          <mxGeometry x="596.25" y="110" width="75.5" height="40" as="geometry" />
        </mxCell>
        <mxCell id="wnsPmOyVE-Uv37FJfm_g-10" value="" style="ellipse;whiteSpace=wrap;html=1;aspect=fixed;" parent="1" vertex="1">
          <mxGeometry x="504" y="160" width="120" height="120" as="geometry" />
        </mxCell>
        <mxCell id="wnsPmOyVE-Uv37FJfm_g-11" value="" style="ellipse;whiteSpace=wrap;html=1;aspect=fixed;" parent="1" vertex="1">
          <mxGeometry x="634" y="160" width="120" height="120" as="geometry" />
        </mxCell>
        <mxCell id="wnsPmOyVE-Uv37FJfm_g-12" value="" style="ellipse;whiteSpace=wrap;html=1;aspect=fixed;" parent="1" vertex="1">
          <mxGeometry x="569" y="270" width="120" height="120" as="geometry" />
        </mxCell>
        <mxCell id="wnsPmOyVE-Uv37FJfm_g-13" value="Agencia" style="text;html=1;align=center;verticalAlign=middle;whiteSpace=wrap;rounded=0;" parent="1" vertex="1">
          <mxGeometry x="534" y="205" width="60" height="30" as="geometry" />
        </mxCell>
        <mxCell id="wnsPmOyVE-Uv37FJfm_g-14" value="Sede" style="text;html=1;align=center;verticalAlign=middle;whiteSpace=wrap;rounded=0;" parent="1" vertex="1">
          <mxGeometry x="664" y="205" width="60" height="30" as="geometry" />
        </mxCell>
        <mxCell id="wnsPmOyVE-Uv37FJfm_g-15" value="Empleado" style="text;html=1;align=center;verticalAlign=middle;whiteSpace=wrap;rounded=0;" parent="1" vertex="1">
          <mxGeometry x="599" y="315" width="60" height="30" as="geometry" />
        </mxCell>
        <mxCell id="wnsPmOyVE-Uv37FJfm_g-16" value="" style="ellipse;whiteSpace=wrap;html=1;aspect=fixed;" parent="1" vertex="1">
          <mxGeometry x="44" y="430" width="310" height="310" as="geometry" />
        </mxCell>
        <mxCell id="wnsPmOyVE-Uv37FJfm_g-17" value="&lt;div style=&quot;text-align: center;&quot;&gt;&lt;span style=&quot;background-color: initial; font-size: 17px;&quot;&gt;Usuario&lt;/span&gt;&lt;/div&gt;" style="text;whiteSpace=wrap;html=1;" parent="1" vertex="1">
          <mxGeometry x="171.25" y="440" width="55.5" height="40" as="geometry" />
        </mxCell>
        <mxCell id="wnsPmOyVE-Uv37FJfm_g-18" value="" style="ellipse;whiteSpace=wrap;html=1;aspect=fixed;" parent="1" vertex="1">
          <mxGeometry x="74" y="490" width="120" height="120" as="geometry" />
        </mxCell>
        <mxCell id="wnsPmOyVE-Uv37FJfm_g-19" value="" style="ellipse;whiteSpace=wrap;html=1;aspect=fixed;" parent="1" vertex="1">
          <mxGeometry x="204" y="490" width="120" height="120" as="geometry" />
        </mxCell>
        <mxCell id="wnsPmOyVE-Uv37FJfm_g-20" value="" style="ellipse;whiteSpace=wrap;html=1;aspect=fixed;" parent="1" vertex="1">
          <mxGeometry x="139" y="600" width="120" height="120" as="geometry" />
        </mxCell>
        <mxCell id="wnsPmOyVE-Uv37FJfm_g-21" value="Cliente" style="text;html=1;align=center;verticalAlign=middle;whiteSpace=wrap;rounded=0;" parent="1" vertex="1">
          <mxGeometry x="104" y="535" width="60" height="30" as="geometry" />
        </mxCell>
        <mxCell id="wnsPmOyVE-Uv37FJfm_g-22" value="Tipo genero" style="text;html=1;align=center;verticalAlign=middle;whiteSpace=wrap;rounded=0;" parent="1" vertex="1">
          <mxGeometry x="234" y="535" width="60" height="30" as="geometry" />
        </mxCell>
        <mxCell id="wnsPmOyVE-Uv37FJfm_g-23" value="Tipo documento" style="text;html=1;align=center;verticalAlign=middle;whiteSpace=wrap;rounded=0;" parent="1" vertex="1">
          <mxGeometry x="169" y="645" width="60" height="30" as="geometry" />
        </mxCell>
        <mxCell id="wnsPmOyVE-Uv37FJfm_g-24" value="" style="ellipse;whiteSpace=wrap;html=1;aspect=fixed;" parent="1" vertex="1">
          <mxGeometry x="474" y="430" width="310" height="310" as="geometry" />
        </mxCell>
        <mxCell id="wnsPmOyVE-Uv37FJfm_g-25" value="&lt;div style=&quot;text-align: center;&quot;&gt;&lt;span style=&quot;background-color: initial; font-size: 17px;&quot;&gt;Producto&lt;/span&gt;&lt;/div&gt;" style="text;whiteSpace=wrap;html=1;" parent="1" vertex="1">
          <mxGeometry x="596.25" y="440" width="65.5" height="40" as="geometry" />
        </mxCell>
        <mxCell id="wnsPmOyVE-Uv37FJfm_g-26" value="" style="ellipse;whiteSpace=wrap;html=1;aspect=fixed;" parent="1" vertex="1">
          <mxGeometry x="504" y="490" width="120" height="120" as="geometry" />
        </mxCell>
        <mxCell id="wnsPmOyVE-Uv37FJfm_g-27" value="" style="ellipse;whiteSpace=wrap;html=1;aspect=fixed;" parent="1" vertex="1">
          <mxGeometry x="634" y="490" width="120" height="120" as="geometry" />
        </mxCell>
        <mxCell id="wnsPmOyVE-Uv37FJfm_g-29" value="Propiedad" style="text;html=1;align=center;verticalAlign=middle;whiteSpace=wrap;rounded=0;" parent="1" vertex="1">
          <mxGeometry x="534" y="535" width="60" height="30" as="geometry" />
        </mxCell>
        <mxCell id="wnsPmOyVE-Uv37FJfm_g-30" value="Tipo propiedad" style="text;html=1;align=center;verticalAlign=middle;whiteSpace=wrap;rounded=0;" parent="1" vertex="1">
          <mxGeometry x="664" y="535" width="60" height="30" as="geometry" />
        </mxCell>
        <mxCell id="zFJ5XTbS8ZYZiBw3KXUi-1" value="" style="ellipse;whiteSpace=wrap;html=1;aspect=fixed;" vertex="1" parent="1">
          <mxGeometry x="239.5" y="740" width="310" height="310" as="geometry" />
        </mxCell>
        <mxCell id="zFJ5XTbS8ZYZiBw3KXUi-2" value="&lt;div style=&quot;text-align: center;&quot;&gt;&lt;span style=&quot;font-size: 17px;&quot;&gt;Transaccion&lt;/span&gt;&lt;br&gt;&lt;/div&gt;" style="text;whiteSpace=wrap;html=1;" vertex="1" parent="1">
          <mxGeometry x="344" y="750" width="55.5" height="40" as="geometry" />
        </mxCell>
        <mxCell id="zFJ5XTbS8ZYZiBw3KXUi-3" value="" style="ellipse;whiteSpace=wrap;html=1;aspect=fixed;" vertex="1" parent="1">
          <mxGeometry x="269.5" y="800" width="120" height="120" as="geometry" />
        </mxCell>
        <mxCell id="zFJ5XTbS8ZYZiBw3KXUi-4" value="" style="ellipse;whiteSpace=wrap;html=1;aspect=fixed;" vertex="1" parent="1">
          <mxGeometry x="399.5" y="800" width="120" height="120" as="geometry" />
        </mxCell>
        <mxCell id="zFJ5XTbS8ZYZiBw3KXUi-5" value="" style="ellipse;whiteSpace=wrap;html=1;aspect=fixed;" vertex="1" parent="1">
          <mxGeometry x="334.5" y="910" width="120" height="120" as="geometry" />
        </mxCell>
        <mxCell id="zFJ5XTbS8ZYZiBw3KXUi-6" value="Venta" style="text;html=1;align=center;verticalAlign=middle;whiteSpace=wrap;rounded=0;" vertex="1" parent="1">
          <mxGeometry x="299.5" y="845" width="60" height="30" as="geometry" />
        </mxCell>
        <mxCell id="zFJ5XTbS8ZYZiBw3KXUi-7" value="Detalle venta" style="text;html=1;align=center;verticalAlign=middle;whiteSpace=wrap;rounded=0;" vertex="1" parent="1">
          <mxGeometry x="429.5" y="845" width="60" height="30" as="geometry" />
        </mxCell>
        <mxCell id="zFJ5XTbS8ZYZiBw3KXUi-8" value="Estado venta" style="text;html=1;align=center;verticalAlign=middle;whiteSpace=wrap;rounded=0;" vertex="1" parent="1">
          <mxGeometry x="364.5" y="955" width="60" height="30" as="geometry" />
        </mxCell>
        <mxCell id="fRa5iiiYHiNqi7se5uml-1" value="" style="ellipse;whiteSpace=wrap;html=1;aspect=fixed;" vertex="1" parent="1">
          <mxGeometry x="574" y="600" width="120" height="120" as="geometry" />
        </mxCell>
        <mxCell id="fRa5iiiYHiNqi7se5uml-2" value="Estado propiedad" style="text;html=1;align=center;verticalAlign=middle;whiteSpace=wrap;rounded=0;" vertex="1" parent="1">
          <mxGeometry x="604" y="645" width="60" height="30" as="geometry" />
        </mxCell>
      </root>
    </mxGraphModel>
  </diagram>
  <diagram id="PbczUBhK2pgvTGa-KoQZ" name="OBJETOS RELACIONALES ">
    <mxGraphModel dx="1035" dy="511" grid="1" gridSize="10" guides="1" tooltips="1" connect="1" arrows="1" fold="1" page="1" pageScale="1" pageWidth="827" pageHeight="1169" math="0" shadow="0">
      <root>
        <mxCell id="0" />
        <mxCell id="1" parent="0" />
        <mxCell id="QDpqknQdW_xKd1De4-6f-38" value="" style="html=1;overflow=block;blockSpacing=1;whiteSpace=wrap;fontSize=13;align=center;spacing=9;rounded=1;absoluteArcSize=1;arcSize=9;strokeWidth=NaN;lucidId=~HTedYTGIx_E;" parent="1" vertex="1">
          <mxGeometry y="190" width="240" height="285" as="geometry" />
        </mxCell>
        <mxCell id="QDpqknQdW_xKd1De4-6f-1" value="Pais" style="html=1;overflow=block;blockSpacing=1;whiteSpace=wrap;fontSize=16.7;align=center;spacing=9;rounded=1;absoluteArcSize=1;arcSize=9;strokeWidth=NaN;lucidId=BITez_5JR8I9;" parent="1" vertex="1">
          <mxGeometry x="45" y="250" width="150" height="45" as="geometry" />
        </mxCell>
        <mxCell id="QDpqknQdW_xKd1De4-6f-2" value="Departamento" style="html=1;overflow=block;blockSpacing=1;whiteSpace=wrap;fontSize=16.7;align=center;spacing=9;rounded=1;absoluteArcSize=1;arcSize=9;strokeWidth=NaN;lucidId=OITeTLTpMnNe;" parent="1" vertex="1">
          <mxGeometry x="45" y="325" width="150" height="45" as="geometry" />
        </mxCell>
        <mxCell id="QDpqknQdW_xKd1De4-6f-3" value="Ciudad" style="html=1;overflow=block;blockSpacing=1;whiteSpace=wrap;fontSize=16.7;align=center;spacing=9;rounded=1;absoluteArcSize=1;arcSize=0;strokeWidth=NaN;lucidId=QITetZ5O9lUV;" parent="1" vertex="1">
          <mxGeometry x="45" y="400" width="150" height="45" as="geometry" />
        </mxCell>
        <mxCell id="QDpqknQdW_xKd1De4-6f-4" value="" style="html=1;jettySize=18;whiteSpace=wrap;fontSize=13;strokeWidth=1.5;rounded=1;arcSize=12;edgeStyle=orthogonalEdgeStyle;startArrow=none;endArrow=block;endFill=1;exitX=0.5;exitY=1.025;exitPerimeter=0;entryX=0.5;entryY=-0.025;entryPerimeter=0;lucidId=tJTen8TrP02v;" parent="1" source="QDpqknQdW_xKd1De4-6f-1" target="QDpqknQdW_xKd1De4-6f-2" edge="1">
          <mxGeometry width="100" height="100" relative="1" as="geometry">
            <Array as="points" />
          </mxGeometry>
        </mxCell>
        <mxCell id="QDpqknQdW_xKd1De4-6f-5" value="" style="html=1;jettySize=18;whiteSpace=wrap;fontSize=13;strokeWidth=1.5;rounded=1;arcSize=12;edgeStyle=orthogonalEdgeStyle;startArrow=none;endArrow=block;endFill=1;exitX=0.5;exitY=1.025;exitPerimeter=0;entryX=0.5;entryY=-0.025;entryPerimeter=0;lucidId=HJTeJ2QRuSRb;" parent="1" source="QDpqknQdW_xKd1De4-6f-2" target="QDpqknQdW_xKd1De4-6f-3" edge="1">
          <mxGeometry width="100" height="100" relative="1" as="geometry">
            <Array as="points" />
          </mxGeometry>
        </mxCell>
        <mxCell id="QDpqknQdW_xKd1De4-6f-6" value="" style="html=1;overflow=block;blockSpacing=1;whiteSpace=wrap;fontSize=13;align=center;spacing=9;rounded=1;absoluteArcSize=1;arcSize=9;strokeWidth=NaN;lucidId=8JTeDUPWvMA0;" parent="1" vertex="1">
          <mxGeometry x="260" y="180" width="240" height="270" as="geometry" />
        </mxCell>
        <mxCell id="QDpqknQdW_xKd1De4-6f-7" value="Empresa" style="html=1;overflow=block;blockSpacing=1;whiteSpace=wrap;fontSize=16.7;align=center;spacing=3.8;strokeOpacity=0;fillOpacity=0;rounded=1;absoluteArcSize=1;arcSize=9;strokeWidth=NaN;lucidId=8JTeCZiZKBvV;" parent="1" vertex="1">
          <mxGeometry x="290" y="195" width="180" height="45" as="geometry" />
        </mxCell>
        <mxCell id="QDpqknQdW_xKd1De4-6f-8" value="Agencia" style="html=1;overflow=block;blockSpacing=1;whiteSpace=wrap;fontSize=16.7;align=center;spacing=9;rounded=1;absoluteArcSize=1;arcSize=9;strokeWidth=NaN;lucidId=8JTeZcX.bsI_;" parent="1" vertex="1">
          <mxGeometry x="305" y="240" width="150" height="45" as="geometry" />
        </mxCell>
        <mxCell id="QDpqknQdW_xKd1De4-6f-9" value="Sede" style="html=1;overflow=block;blockSpacing=1;whiteSpace=wrap;fontSize=16.7;align=center;spacing=9;rounded=1;absoluteArcSize=1;arcSize=9;strokeWidth=NaN;lucidId=8JTeVPgNUMaj;" parent="1" vertex="1">
          <mxGeometry x="305" y="315" width="150" height="45" as="geometry" />
        </mxCell>
        <mxCell id="QDpqknQdW_xKd1De4-6f-10" value="Empleado" style="html=1;overflow=block;blockSpacing=1;whiteSpace=wrap;fontSize=16.7;align=center;spacing=9;rounded=1;absoluteArcSize=1;arcSize=9;strokeWidth=NaN;lucidId=8JTeeexct-w~;" parent="1" vertex="1">
          <mxGeometry x="305" y="390" width="150" height="45" as="geometry" />
        </mxCell>
        <mxCell id="QDpqknQdW_xKd1De4-6f-11" value="" style="html=1;jettySize=18;whiteSpace=wrap;fontSize=13;strokeWidth=1.5;rounded=1;arcSize=12;edgeStyle=orthogonalEdgeStyle;startArrow=none;endArrow=block;endFill=1;exitX=0.5;exitY=1.025;exitPerimeter=0;entryX=0.5;entryY=-0.025;entryPerimeter=0;lucidId=8JTeSFXnW5LN;" parent="1" source="QDpqknQdW_xKd1De4-6f-8" target="QDpqknQdW_xKd1De4-6f-9" edge="1">
          <mxGeometry width="100" height="100" relative="1" as="geometry">
            <Array as="points" />
          </mxGeometry>
        </mxCell>
        <mxCell id="QDpqknQdW_xKd1De4-6f-12" value="" style="html=1;jettySize=18;whiteSpace=wrap;fontSize=13;strokeWidth=1.5;rounded=1;arcSize=12;edgeStyle=orthogonalEdgeStyle;startArrow=none;endArrow=block;endFill=1;exitX=0.5;exitY=1.025;exitPerimeter=0;entryX=0.5;entryY=-0.025;entryPerimeter=0;lucidId=8JTem9hmq9S~;" parent="1" source="QDpqknQdW_xKd1De4-6f-9" target="QDpqknQdW_xKd1De4-6f-10" edge="1">
          <mxGeometry width="100" height="100" relative="1" as="geometry">
            <Array as="points" />
          </mxGeometry>
        </mxCell>
        <mxCell id="QDpqknQdW_xKd1De4-6f-15" value="" style="html=1;overflow=block;blockSpacing=1;whiteSpace=wrap;fontSize=13;align=center;spacing=9;rounded=1;absoluteArcSize=1;arcSize=9;strokeWidth=NaN;lucidId=BNTe3kUbQqy7;" parent="1" vertex="1">
          <mxGeometry x="50" y="690" width="490" height="170" as="geometry" />
        </mxCell>
        <mxCell id="QDpqknQdW_xKd1De4-6f-16" value="&lt;font style=&quot;vertical-align: inherit;&quot;&gt;&lt;font style=&quot;vertical-align: inherit;&quot;&gt;Producto&lt;/font&gt;&lt;/font&gt;" style="html=1;overflow=block;blockSpacing=1;whiteSpace=wrap;fontSize=16.7;align=center;spacing=3.8;strokeOpacity=0;fillOpacity=0;rounded=1;absoluteArcSize=1;arcSize=9;strokeWidth=NaN;lucidId=BNTeTvKyI5EJ;" parent="1" vertex="1">
          <mxGeometry x="185" y="690" width="180" height="45" as="geometry" />
        </mxCell>
        <mxCell id="QDpqknQdW_xKd1De4-6f-17" value="&lt;font style=&quot;vertical-align: inherit;&quot;&gt;&lt;font style=&quot;vertical-align: inherit;&quot;&gt;Propiedad&lt;/font&gt;&lt;/font&gt;" style="html=1;overflow=block;blockSpacing=1;whiteSpace=wrap;fontSize=16.7;align=center;spacing=9;rounded=1;absoluteArcSize=1;arcSize=9;strokeWidth=NaN;lucidId=BNTec22mr~Sp;" parent="1" vertex="1">
          <mxGeometry x="357" y="760" width="98" height="51" as="geometry" />
        </mxCell>
        <mxCell id="1SvLEONA7n1nNUh2lzcI-11" style="edgeStyle=orthogonalEdgeStyle;rounded=0;orthogonalLoop=1;jettySize=auto;html=1;entryX=0;entryY=0.25;entryDx=0;entryDy=0;" parent="1" source="QDpqknQdW_xKd1De4-6f-19" target="QDpqknQdW_xKd1De4-6f-17" edge="1">
          <mxGeometry relative="1" as="geometry" />
        </mxCell>
        <mxCell id="QDpqknQdW_xKd1De4-6f-19" value="Tipo propiedad" style="html=1;overflow=block;blockSpacing=1;whiteSpace=wrap;fontSize=16.7;align=center;spacing=9;rounded=1;absoluteArcSize=1;arcSize=9;strokeWidth=NaN;lucidId=hPTep55ltFba;" parent="1" vertex="1">
          <mxGeometry x="80" y="715" width="130" height="60" as="geometry" />
        </mxCell>
        <mxCell id="QDpqknQdW_xKd1De4-6f-21" value="" style="html=1;overflow=block;blockSpacing=1;whiteSpace=wrap;fontSize=13;align=center;spacing=9;rounded=1;absoluteArcSize=1;arcSize=9;strokeWidth=NaN;lucidId=3LTezqUJm6WV;" parent="1" vertex="1">
          <mxGeometry x="560" y="165" width="240" height="285" as="geometry" />
        </mxCell>
        <mxCell id="QDpqknQdW_xKd1De4-6f-22" value="Usuario" style="html=1;overflow=block;blockSpacing=1;whiteSpace=wrap;fontSize=16.7;align=center;spacing=3.8;strokeOpacity=0;fillOpacity=0;rounded=1;absoluteArcSize=1;arcSize=9;strokeWidth=NaN;lucidId=3LTeeRV_QoZb;" parent="1" vertex="1">
          <mxGeometry x="590" y="175" width="180" height="45" as="geometry" />
        </mxCell>
        <mxCell id="QDpqknQdW_xKd1De4-6f-23" value="&lt;font style=&quot;vertical-align: inherit;&quot;&gt;&lt;font style=&quot;vertical-align: inherit;&quot;&gt;Tipo Genero&lt;/font&gt;&lt;/font&gt;" style="html=1;overflow=block;blockSpacing=1;whiteSpace=wrap;fontSize=16.7;align=center;spacing=9;rounded=1;absoluteArcSize=1;arcSize=9;strokeWidth=NaN;lucidId=3LTeJ60i9~Mb;" parent="1" vertex="1">
          <mxGeometry x="605" y="220" width="150" height="45" as="geometry" />
        </mxCell>
        <mxCell id="QDpqknQdW_xKd1De4-6f-24" value="Cliente" style="html=1;overflow=block;blockSpacing=1;whiteSpace=wrap;fontSize=16.7;align=center;spacing=9;rounded=1;absoluteArcSize=1;arcSize=9;strokeWidth=NaN;lucidId=3LTeGPWu500-;" parent="1" vertex="1">
          <mxGeometry x="605" y="295" width="150" height="45" as="geometry" />
        </mxCell>
        <mxCell id="QDpqknQdW_xKd1De4-6f-25" value="Tipo Documento" style="html=1;overflow=block;blockSpacing=1;whiteSpace=wrap;fontSize=16.7;align=center;spacing=9;rounded=1;absoluteArcSize=1;arcSize=9;strokeWidth=NaN;lucidId=3LTerJBN76xA;" parent="1" vertex="1">
          <mxGeometry x="605" y="370" width="150" height="45" as="geometry" />
        </mxCell>
        <mxCell id="QDpqknQdW_xKd1De4-6f-26" value="" style="html=1;jettySize=18;whiteSpace=wrap;fontSize=13;strokeWidth=1.5;rounded=1;arcSize=12;edgeStyle=orthogonalEdgeStyle;startArrow=none;endArrow=block;endFill=1;exitX=0.5;exitY=1.025;exitPerimeter=0;entryX=0.5;entryY=-0.025;entryPerimeter=0;lucidId=3LTehZraS098;" parent="1" source="QDpqknQdW_xKd1De4-6f-23" target="QDpqknQdW_xKd1De4-6f-24" edge="1">
          <mxGeometry width="100" height="100" relative="1" as="geometry">
            <Array as="points" />
          </mxGeometry>
        </mxCell>
        <mxCell id="QDpqknQdW_xKd1De4-6f-27" value="" style="html=1;jettySize=18;whiteSpace=wrap;fontSize=13;strokeWidth=1.5;rounded=1;arcSize=12;edgeStyle=orthogonalEdgeStyle;startArrow=none;endArrow=block;endFill=1;exitX=0.5;exitY=-0.025;exitPerimeter=0;entryX=0.5;entryY=1.025;entryPerimeter=0;lucidId=hNTex75AODjK;" parent="1" source="QDpqknQdW_xKd1De4-6f-25" target="QDpqknQdW_xKd1De4-6f-24" edge="1">
          <mxGeometry width="100" height="100" relative="1" as="geometry">
            <Array as="points" />
          </mxGeometry>
        </mxCell>
        <mxCell id="QDpqknQdW_xKd1De4-6f-28" value="" style="html=1;overflow=block;blockSpacing=1;whiteSpace=wrap;fontSize=13;align=center;spacing=9;rounded=1;absoluteArcSize=1;arcSize=9;strokeWidth=NaN;lucidId=o0TeilN9JcS4;" parent="1" vertex="1">
          <mxGeometry x="560" y="490" width="240" height="285" as="geometry" />
        </mxCell>
        <mxCell id="QDpqknQdW_xKd1De4-6f-29" value="Transaccion" style="html=1;overflow=block;blockSpacing=1;whiteSpace=wrap;fontSize=16.7;align=center;spacing=3.8;strokeOpacity=0;fillOpacity=0;rounded=1;absoluteArcSize=1;arcSize=9;strokeWidth=NaN;lucidId=o0TestyBMe6i;" parent="1" vertex="1">
          <mxGeometry x="590" y="505" width="180" height="45" as="geometry" />
        </mxCell>
        <mxCell id="QDpqknQdW_xKd1De4-6f-30" value="&lt;font style=&quot;vertical-align: inherit;&quot;&gt;&lt;font style=&quot;vertical-align: inherit;&quot;&gt;Venta&lt;/font&gt;&lt;/font&gt;" style="html=1;overflow=block;blockSpacing=1;whiteSpace=wrap;fontSize=16.7;align=center;spacing=9;rounded=1;absoluteArcSize=1;arcSize=9;strokeWidth=NaN;lucidId=o0Te5X3v1LEY;" parent="1" vertex="1">
          <mxGeometry x="605" y="550" width="150" height="45" as="geometry" />
        </mxCell>
        <mxCell id="QDpqknQdW_xKd1De4-6f-31" value="&lt;font style=&quot;vertical-align: inherit;&quot;&gt;&lt;font style=&quot;vertical-align: inherit;&quot;&gt;Detalle de la venta&lt;/font&gt;&lt;/font&gt;" style="html=1;overflow=block;blockSpacing=1;whiteSpace=wrap;fontSize=16.7;align=center;spacing=9;rounded=1;absoluteArcSize=1;arcSize=9;strokeWidth=NaN;lucidId=o0TekN469XL-;" parent="1" vertex="1">
          <mxGeometry x="605" y="620" width="150" height="55" as="geometry" />
        </mxCell>
        <mxCell id="QDpqknQdW_xKd1De4-6f-32" value="&lt;font style=&quot;vertical-align: inherit;&quot;&gt;&lt;font style=&quot;vertical-align: inherit;&quot;&gt;Estado venta&lt;/font&gt;&lt;/font&gt;" style="html=1;overflow=block;blockSpacing=1;whiteSpace=wrap;fontSize=16.7;align=center;spacing=9;rounded=1;absoluteArcSize=1;arcSize=9;strokeWidth=NaN;lucidId=o0Tet7YkC-ZH;" parent="1" vertex="1">
          <mxGeometry x="605" y="700" width="150" height="45" as="geometry" />
        </mxCell>
        <mxCell id="QDpqknQdW_xKd1De4-6f-33" value="" style="html=1;jettySize=18;whiteSpace=wrap;fontSize=13;strokeWidth=1.5;rounded=1;arcSize=12;edgeStyle=orthogonalEdgeStyle;startArrow=none;endArrow=block;endFill=1;exitX=0.5;exitY=1.025;exitPerimeter=0;entryX=0.5;entryY=-0.025;entryPerimeter=0;lucidId=o0TeFgrrd0id;" parent="1" source="QDpqknQdW_xKd1De4-6f-30" target="QDpqknQdW_xKd1De4-6f-31" edge="1">
          <mxGeometry width="100" height="100" relative="1" as="geometry">
            <Array as="points" />
          </mxGeometry>
        </mxCell>
        <mxCell id="QDpqknQdW_xKd1De4-6f-34" value="" style="html=1;jettySize=18;whiteSpace=wrap;fontSize=13;strokeWidth=1.5;rounded=1;arcSize=12;edgeStyle=orthogonalEdgeStyle;startArrow=none;endArrow=block;endFill=1;exitX=0.5;exitY=-0.025;exitPerimeter=0;entryX=0.5;entryY=1.025;entryPerimeter=0;lucidId=o0Tel0rnd6ay;" parent="1" source="QDpqknQdW_xKd1De4-6f-32" target="QDpqknQdW_xKd1De4-6f-31" edge="1">
          <mxGeometry width="100" height="100" relative="1" as="geometry">
            <Array as="points" />
          </mxGeometry>
        </mxCell>
        <mxCell id="QDpqknQdW_xKd1De4-6f-39" value="Geografia" style="html=1;overflow=block;blockSpacing=1;whiteSpace=wrap;fontSize=16.7;align=center;spacing=3.8;strokeOpacity=0;fillOpacity=0;rounded=1;absoluteArcSize=1;arcSize=9;strokeWidth=NaN;lucidId=oITeGIjvXMUv;" parent="1" vertex="1">
          <mxGeometry x="30" y="205" width="180" height="45" as="geometry" />
        </mxCell>
        <mxCell id="JbdeAxwpth3P7N7uTVow-1" value="&lt;font style=&quot;font-size: 21px;&quot;&gt;OBJETOS RELACIONALES&amp;nbsp;&amp;nbsp;- URBANI&lt;/font&gt;" style="text;html=1;align=center;verticalAlign=middle;whiteSpace=wrap;rounded=0;" parent="1" vertex="1">
          <mxGeometry x="150" y="80" width="480" height="30" as="geometry" />
        </mxCell>
        <mxCell id="1SvLEONA7n1nNUh2lzcI-3" style="edgeStyle=orthogonalEdgeStyle;rounded=0;orthogonalLoop=1;jettySize=auto;html=1;entryX=0;entryY=0.5;entryDx=0;entryDy=0;" parent="1" source="QDpqknQdW_xKd1De4-6f-3" target="QDpqknQdW_xKd1De4-6f-9" edge="1">
          <mxGeometry relative="1" as="geometry" />
        </mxCell>
        <mxCell id="1SvLEONA7n1nNUh2lzcI-5" style="edgeStyle=orthogonalEdgeStyle;rounded=0;orthogonalLoop=1;jettySize=auto;html=1;entryX=0;entryY=0.5;entryDx=0;entryDy=0;" parent="1" source="QDpqknQdW_xKd1De4-6f-10" target="QDpqknQdW_xKd1De4-6f-30" edge="1">
          <mxGeometry relative="1" as="geometry" />
        </mxCell>
        <mxCell id="1SvLEONA7n1nNUh2lzcI-9" style="edgeStyle=orthogonalEdgeStyle;rounded=0;orthogonalLoop=1;jettySize=auto;html=1;entryX=1;entryY=0.5;entryDx=0;entryDy=0;" parent="1" source="QDpqknQdW_xKd1De4-6f-24" target="QDpqknQdW_xKd1De4-6f-30" edge="1">
          <mxGeometry relative="1" as="geometry">
            <Array as="points">
              <mxPoint x="810" y="318" />
              <mxPoint x="810" y="573" />
            </Array>
          </mxGeometry>
        </mxCell>
        <mxCell id="fme7FjKkPZJPpewFisOz-2" style="edgeStyle=orthogonalEdgeStyle;rounded=0;orthogonalLoop=1;jettySize=auto;html=1;" parent="1" source="fme7FjKkPZJPpewFisOz-1" target="QDpqknQdW_xKd1De4-6f-17" edge="1">
          <mxGeometry relative="1" as="geometry" />
        </mxCell>
        <mxCell id="fme7FjKkPZJPpewFisOz-1" value="Estado propiedad" style="html=1;overflow=block;blockSpacing=1;whiteSpace=wrap;fontSize=16.7;align=center;spacing=9;rounded=1;absoluteArcSize=1;arcSize=9;strokeWidth=NaN;lucidId=hPTep55ltFba;" parent="1" vertex="1">
          <mxGeometry x="80" y="790" width="130" height="60" as="geometry" />
        </mxCell>
        <mxCell id="9Vyb_VA8ztF2cDzRpZsA-1" style="edgeStyle=orthogonalEdgeStyle;rounded=0;orthogonalLoop=1;jettySize=auto;html=1;entryX=0;entryY=0.75;entryDx=0;entryDy=0;" edge="1" parent="1" source="QDpqknQdW_xKd1De4-6f-17" target="QDpqknQdW_xKd1De4-6f-31">
          <mxGeometry relative="1" as="geometry" />
        </mxCell>
        <mxCell id="9Vyb_VA8ztF2cDzRpZsA-2" style="edgeStyle=orthogonalEdgeStyle;rounded=0;orthogonalLoop=1;jettySize=auto;html=1;entryX=0;entryY=0.5;entryDx=0;entryDy=0;" edge="1" parent="1" source="QDpqknQdW_xKd1De4-6f-3" target="QDpqknQdW_xKd1De4-6f-31">
          <mxGeometry relative="1" as="geometry">
            <Array as="points">
              <mxPoint x="120" y="620" />
              <mxPoint x="400" y="620" />
              <mxPoint x="400" y="647" />
            </Array>
          </mxGeometry>
        </mxCell>
      </root>
    </mxGraphModel>
  </diagram>
</mxfile>
